{
    "asset" : {
        "generator" : "Khronos glTF Blender I/O v1.1.45",
        "version" : "2.0"
    },
    "scene" : 0,
    "scenes" : [
        {
            "name" : "Scene",
            "nodes" : [
                0
            ]
        }
    ],
    "nodes" : [
        {
            "mesh" : 0,
            "name" : "_3_tree_Sphere.007",
            "rotation" : [
                0.7071068286895752,
                0,
                0,
                0.7071067094802856
            ]
        }
    ],
    "materials" : [
        {
            "doubleSided" : true,
            "emissiveFactor" : [
                0,
                0,
                0
            ],
            "name" : "_3_tree",
            "pbrMetallicRoughness" : {
                "baseColorTexture" : {
                    "index" : 0,
                    "texCoord" : 0
                },
                "metallicFactor" : 0,
                "roughnessFactor" : 0.6732679605484009
            }
        }
    ],
    "meshes" : [
        {
            "name" : "_3_tree_Sphere.007",
            "primitives" : [
                {
                    "attributes" : {
                        "POSITION" : 0,
                        "NORMAL" : 1,
                        "TEXCOORD_0" : 2
                    },
                    "indices" : 3,
                    "material" : 0
                }
            ]
        }
    ],
    "textures" : [
        {
            "source" : 0
        }
    ],
    "images" : [
        {
            "bufferView" : 4,
            "mimeType" : "image/png",
            "name" : "_3_tree"
        }
    ],
    "accessors" : [
        {
            "bufferView" : 0,
            "componentType" : 5126,
            "count" : 1980,
            "max" : [
                -0.8993510007858276,
                0.730666995048523,
                0.011651000007987022
            ],
            "min" : [
                -1.6946229934692383,
                -0.4375079870223999,
                -1.5725359916687012
            ],
            "type" : "VEC3"
        },
        {
            "bufferView" : 1,
            "componentType" : 5126,
            "count" : 1980,
            "type" : "VEC3"
        },
        {
            "bufferView" : 2,
            "componentType" : 5126,
            "count" : 1980,
            "type" : "VEC2"
        },
        {
            "bufferView" : 3,
            "componentType" : 5123,
            "count" : 2016,
            "type" : "SCALAR"
        }
    ],
    "bufferViews" : [
        {
            "buffer" : 0,
            "byteLength" : 23760,
            "byteOffset" : 0
        },
        {
            "buffer" : 0,
            "byteLength" : 23760,
            "byteOffset" : 23760
        },
        {
            "buffer" : 0,
            "byteLength" : 15840,
            "byteOffset" : 47520
        },
        {
            "buffer" : 0,
            "byteLength" : 4032,
            "byteOffset" : 63360
        },
        {
            "buffer" : 0,
            "byteLength" : 204974,
            "byteOffset" : 67392
        }
    ],
    "buffers" : [
        {
            "byteLength" : 272368,
            "uri" : "data:application/octet-stream;base64,"
        }
    ]
}
