{
  "accessors": [
    {
      "bufferView": 2,
      "componentType": 5126,
      "count": 24112,
      "max": [
        982.111572265625,
        1168.233154296875,
        2170.966552734375
      ],
      "min": [
        -1191.492431640625,
        -1097.5142822265625,
        178.69856262207031
      ],
      "type": "VEC3"
    },
    {
      "bufferView": 2,
      "byteOffset": 289344,
      "componentType": 5126,
      "count": 24112,
      "max": [
        0.99979698657989502,
        0.99992311000823975,
        0.99992191791534424
      ],
      "min": [
        -0.99992311000823975,
        -0.99992191791534424,
        -0.99961584806442261
      ],
      "type": "VEC3"
    },
    {
      "bufferView": 3,
      "componentType": 5126,
      "count": 24112,
      "max": [
        0.99996656179428101,
        0.99996930360794067,
        0.99995958805084229,
        1
      ],
      "min": [
        -0.99978667497634888,
        -0.99992698431015015,
        -0.99998736381530762,
        -1
      ],
      "type": "VEC4"
    },
    {
      "bufferView": 3,
      "byteOffset": 385792,
      "componentType": 5126,
      "count": 24112,
      "max": [
        1,
        0,
        1,
        1
      ],
      "min": [
        0,
        0,
        0,
        1
      ],
      "type": "VEC4"
    },
    {
      "bufferView": 1,
      "componentType": 5126,
      "count": 24112,
      "max": [
        0.7421875,
        0.99500274658203125
      ],
      "min": [
        0.00499725341796875,
        0.00537109375
      ],
      "type": "VEC2"
    },
    {
      "bufferView": 1,
      "byteOffset": 192896,
      "componentType": 5126,
      "count": 24112,
      "max": [
        0.7421875,
        0.99500274658203125
      ],
      "min": [
        0.00499725341796875,
        0.00537109375
      ],
      "type": "VEC2"
    },
    {
      "bufferView": 0,
      "componentType": 5125,
      "count": 36372,
      "max": [
        24111
      ],
      "min": [
        0
      ],
      "type": "SCALAR"
    },
    {
      "bufferView": 2,
      "byteOffset": 578688,
      "componentType": 5126,
      "count": 11587,
      "max": [
        849.35455322265625,
        999.94024658203125,
        2045.4892578125
      ],
      "min": [
        -1013.7506713867188,
        -899.8905029296875,
        -140.49612426757812
      ],
      "type": "VEC3"
    },
    {
      "bufferView": 2,
      "byteOffset": 717732,
      "componentType": 5126,
      "count": 11587,
      "max": [
        0.99998438358306885,
        0.99986171722412109,
        0.99998438358306885
      ],
      "min": [
        -0.99992311000823975,
        -0.99998438358306885,
        -0.99986171722412109
      ],
      "type": "VEC3"
    },
    {
      "bufferView": 3,
      "byteOffset": 771584,
      "componentType": 5126,
      "count": 11587,
      "max": [
        0.99999219179153442,
        0.99999147653579712,
        0.99998998641967773,
        1
      ],
      "min": [
        -0.99998420476913452,
        -0.99994170665740967,
        -0.9999924898147583,
        -1
      ],
      "type": "VEC4"
    },
    {
      "bufferView": 3,
      "byteOffset": 956976,
      "componentType": 5126,
      "count": 11587,
      "max": [
        1,
        1,
        1,
        1
      ],
      "min": [
        0.27843138575553894,
        0.27843138575553894,
        0.27843138575553894,
        1
      ],
      "type": "VEC4"
    },
    {
      "bufferView": 1,
      "byteOffset": 385792,
      "componentType": 5126,
      "count": 11587,
      "max": [
        8.2109375,
        10.1796875
      ],
      "min": [
        -4.87109375,
        -0.9794921875
      ],
      "type": "VEC2"
    },
    {
      "bufferView": 0,
      "byteOffset": 145488,
      "componentType": 5125,
      "count": 37908,
      "max": [
        11586
      ],
      "min": [
        0
      ],
      "type": "SCALAR"
    }
  ],
  "asset": {
    "extras": {
      "author": "studio lab (https://sketchfab.com/leonlabyk)",
      "license": "SKETCHFAB Standard (https://sketchfab.com/licenses)",
      "source": "https://sketchfab.com/3d-models/white-oak-c4489545fc014f93bd26e3bfe00a67bb",
      "title": "White Oak"
    },
    "generator": "Sketchfab-5.74.0",
    "version": "2.0"
  },
  "bufferViews": [
    {
      "buffer": 0,
      "byteLength": 297120,
      "byteOffset": 0,
      "name": "floatBufferViews",
      "target": 34963
    },
    {
      "buffer": 0,
      "byteLength": 478488,
      "byteOffset": 297120,
      "byteStride": 8,
      "name": "floatBufferViews",
      "target": 34962
    },
    {
      "buffer": 0,
      "byteLength": 856776,
      "byteOffset": 775608,
      "byteStride": 12,
      "name": "floatBufferViews",
      "target": 34962
    },
    {
      "buffer": 0,
      "byteLength": 1142368,
      "byteOffset": 1632384,
      "byteStride": 16,
      "name": "floatBufferViews",
      "target": 34962
    }
  ],
  "buffers": [
    {
      "byteLength": 2774752,
      "uri": "scene.bin"
    }
  ],
  "extensionsRequired": [
    "KHR_materials_pbrSpecularGlossiness"
  ],
  "extensionsUsed": [
    "KHR_materials_pbrSpecularGlossiness"
  ],
  "images": [
    {
      "uri": "textures/WhiteOak01LeavesSub_diffuse.png"
    },
    {
      "uri": "textures/WhiteOak01LeavesSub_specularGlossiness.png"
    },
    {
      "uri": "textures/WhiteOak01LeavesSub_normal.png"
    },
    {
      "uri": "textures/WhiteOak01BranchesSub_diffuse.png"
    },
    {
      "uri": "textures/WhiteOak01BranchesSub_specularGlossiness.png"
    },
    {
      "uri": "textures/WhiteOak01BranchesSub_normal.png"
    }
  ],
  "materials": [
    {
      "alphaCutoff": 0.062690548799999996,
      "alphaMode": "MASK",
      "doubleSided": true,
      "emissiveFactor": [
        0,
        0,
        0
      ],
      "extensions": {
        "KHR_materials_pbrSpecularGlossiness": {
          "diffuseFactor": [
            1,
            1,
            1,
            1
          ],
          "diffuseTexture": {
            "index": 0,
            "texCoord": 0
          },
          "glossinessFactor": 1,
          "specularFactor": [
            0,
            0,
            0
          ],
          "specularGlossinessTexture": {
            "index": 1,
            "texCoord": 0
          }
        }
      },
      "name": "WhiteOak01LeavesSub",
      "normalTexture": {
        "index": 2,
        "scale": 1,
        "texCoord": 0
      }
    },
    {
      "doubleSided": true,
      "emissiveFactor": [
        0,
        0,
        0
      ],
      "extensions": {
        "KHR_materials_pbrSpecularGlossiness": {
          "diffuseFactor": [
            1,
            1,
            1,
            1
          ],
          "diffuseTexture": {
            "index": 3,
            "texCoord": 0
          },
          "glossinessFactor": 1,
          "specularFactor": [
            0,
            0,
            0
          ],
          "specularGlossinessTexture": {
            "index": 4,
            "texCoord": 0
          }
        }
      },
      "name": "WhiteOak01BranchesSub",
      "normalTexture": {
        "index": 5,
        "scale": 1,
        "texCoord": 0
      }
    }
  ],
  "meshes": [
    {
      "name": "Canopy_WhiteOak01LeavesSub_0",
      "primitives": [
        {
          "attributes": {
            "COLOR_0": 3,
            "NORMAL": 1,
            "POSITION": 0,
            "TANGENT": 2,
            "TEXCOORD_0": 4,
            "TEXCOORD_1": 5
          },
          "indices": 6,
          "material": 0,
          "mode": 4
        }
      ]
    },
    {
      "name": "Trunk_WhiteOak01BranchesSub_0",
      "primitives": [
        {
          "attributes": {
            "COLOR_0": 10,
            "NORMAL": 8,
            "POSITION": 7,
            "TANGENT": 9,
            "TEXCOORD_0": 11
          },
          "indices": 12,
          "material": 1,
          "mode": 4
        }
      ]
    }
  ],
  "nodes": [
    {
      "children": [
        1
      ],
      "name": "RootNode (gltf orientation matrix)",
      "rotation": [
        -0.70710678118654746,
        -0,
        -0,
        0.70710678118654757
      ]
    },
    {
      "children": [
        2
      ],
      "name": "RootNode (model correction matrix)"
    },
    {
      "children": [
        3
      ],
      "matrix": [
        1,
        0,
        0,
        0,
        0,
        0,
        1,
        0,
        0,
        -1,
        0,
        0,
        0,
        0,
        0,
        1
      ],
      "name": "WhiteOak01.fbx"
    },
    {
      "children": [
        4
      ],
      "name": "RootNode"
    },
    {
      "children": [
        5,
        7
      ],
      "name": "WhiteOak01_group"
    },
    {
      "children": [
        6
      ],
      "matrix": [
        1,
        0,
        0,
        0,
        0,
        2.2204460492503131e-16,
        -1,
        0,
        0,
        1,
        2.2204460492503131e-16,
        0,
        0,
        0,
        0,
        1
      ],
      "name": "Canopy"
    },
    {
      "mesh": 0,
      "name": "Canopy_WhiteOak01LeavesSub_0"
    },
    {
      "children": [
        8
      ],
      "matrix": [
        1,
        0,
        0,
        0,
        0,
        2.2204460492503131e-16,
        -1,
        0,
        0,
        1,
        2.2204460492503131e-16,
        0,
        0,
        0,
        0,
        1
      ],
      "name": "Trunk"
    },
    {
      "mesh": 1,
      "name": "Trunk_WhiteOak01BranchesSub_0"
    }
  ],
  "samplers": [
    {
      "magFilter": 9729,
      "minFilter": 9987,
      "wrapS": 10497,
      "wrapT": 10497
    }
  ],
  "scene": 0,
  "scenes": [
    {
      "name": "OSG_Scene",
      "nodes": [
        0
      ]
    }
  ],
  "textures": [
    {
      "sampler": 0,
      "source": 0
    },
    {
      "sampler": 0,
      "source": 1
    },
    {
      "sampler": 0,
      "source": 2
    },
    {
      "sampler": 0,
      "source": 3
    },
    {
      "sampler": 0,
      "source": 4
    },
    {
      "sampler": 0,
      "source": 5
    }
  ]
}

