{
    "asset" : {
        "generator" : "Khronos glTF Blender I/O v1.0.5",
        "version" : "2.0"
    },
    "scene" : 0,
    "scenes" : [
        {
            "name" : "Scene",
            "nodes" : [
                0,
                1,
                3,
                4,
                5
            ]
        }
    ],
    "nodes" : [
        {
            "name" : "Light",
            "rotation" : [
                0.16907575726509094,
                0.7558803558349609,
                -0.27217137813568115,
                0.570947527885437
            ],
            "translation" : [
                4.076245307922363,
                5.903861999511719,
                -1.0054539442062378
            ]
        },
        {
            "name" : "Camera",
            "rotation" : [
                0.483536034822464,
                0.33687159419059753,
                -0.20870360732078552,
                0.7804827094078064
            ],
            "translation" : [
                7.358891487121582,
                4.958309173583984,
                6.925790786743164
            ]
        },
        {
            "mesh" : 0,
            "name" : "mesh_CityEngineMaterial"
        },
        {
            "children" : [
                2
            ],
            "name" : "Node",
            "rotation" : [
                0.7071068286895752,
                0,
                0,
                0.7071067094802856
            ],
            "translation" : [
                0,
                5.5,
                0
            ]
        },
        {
            "mesh" : 1,
            "name" : "Plane",
            "scale" : [
                200,
                1,
                200
            ]
        },
        {
            "mesh" : 2,
            "name" : "Cube",
            "scale" : [
                15,
                10,
                12
            ],
            "translation" : [
                106.77306365966797,
                0,
                -72.31769561767578
            ]
        }
    ],
    "materials" : [
        {
            "alphaMode" : "BLEND",
            "doubleSided" : true,
            "name" : "CityEngineMaterial",
            "pbrMetallicRoughness" : {
                "baseColorFactor" : [
                    1,
                    1,
                    1,
                    1
                ],
                "metallicFactor" : 0,
                "roughnessFactor" : 1
            }
        }
    ],
    "meshes" : [
        {
            "name" : "mesh_CityEngineMaterial",
            "primitives" : [
                {
                    "attributes" : {
                        "POSITION" : 0,
                        "NORMAL" : 1,
                        "COLOR_0" : 2
                    },
                    "indices" : 3,
                    "material" : 0
                }
            ]
        },
        {
            "name" : "Plane.001",
            "primitives" : [
                {
                    "attributes" : {
                        "POSITION" : 4,
                        "NORMAL" : 5,
                        "TEXCOORD_0" : 6
                    },
                    "indices" : 7
                }
            ]
        },
        {
            "name" : "Cube",
            "primitives" : [
                {
                    "attributes" : {
                        "POSITION" : 8,
                        "NORMAL" : 9,
                        "TEXCOORD_0" : 10
                    },
                    "indices" : 11
                }
            ]
        }
    ],
    "accessors" : [
        {
            "bufferView" : 0,
            "componentType" : 5126,
            "count" : 4329,
            "max" : [
                227.875,
                162.5,
                5.456521034240723
            ],
            "min" : [
                -277.59375,
                -241,
                -9.343485832214355
            ],
            "type" : "VEC3"
        },
        {
            "bufferView" : 1,
            "componentType" : 5126,
            "count" : 4329,
            "type" : "VEC3"
        },
        {
            "bufferView" : 2,
            "componentType" : 5126,
            "count" : 4329,
            "type" : "VEC4"
        },
        {
            "bufferView" : 3,
            "componentType" : 5123,
            "count" : 4329,
            "type" : "SCALAR"
        },
        {
            "bufferView" : 4,
            "componentType" : 5126,
            "count" : 239,
            "max" : [
                1,
                0.5004912614822388,
                1
            ],
            "min" : [
                -1,
                -0.40766239166259766,
                -1
            ],
            "type" : "VEC3"
        },
        {
            "bufferView" : 5,
            "componentType" : 5126,
            "count" : 239,
            "type" : "VEC3"
        },
        {
            "bufferView" : 6,
            "componentType" : 5126,
            "count" : 239,
            "type" : "VEC2"
        },
        {
            "bufferView" : 7,
            "componentType" : 5123,
            "count" : 675,
            "type" : "SCALAR"
        },
        {
            "bufferView" : 8,
            "componentType" : 5126,
            "count" : 24,
            "max" : [
                1,
                1,
                1
            ],
            "min" : [
                -1,
                -1,
                -1
            ],
            "type" : "VEC3"
        },
        {
            "bufferView" : 9,
            "componentType" : 5126,
            "count" : 24,
            "type" : "VEC3"
        },
        {
            "bufferView" : 10,
            "componentType" : 5126,
            "count" : 24,
            "type" : "VEC2"
        },
        {
            "bufferView" : 11,
            "componentType" : 5123,
            "count" : 36,
            "type" : "SCALAR"
        }
    ],
    "bufferViews" : [
        {
            "buffer" : 0,
            "byteLength" : 51948,
            "byteOffset" : 0
        },
        {
            "buffer" : 0,
            "byteLength" : 51948,
            "byteOffset" : 51948
        },
        {
            "buffer" : 0,
            "byteLength" : 69264,
            "byteOffset" : 103896
        },
        {
            "buffer" : 0,
            "byteLength" : 8658,
            "byteOffset" : 173160
        },
        {
            "buffer" : 0,
            "byteLength" : 2868,
            "byteOffset" : 181820
        },
        {
            "buffer" : 0,
            "byteLength" : 2868,
            "byteOffset" : 184688
        },
        {
            "buffer" : 0,
            "byteLength" : 1912,
            "byteOffset" : 187556
        },
        {
            "buffer" : 0,
            "byteLength" : 1350,
            "byteOffset" : 189468
        },
        {
            "buffer" : 0,
            "byteLength" : 288,
            "byteOffset" : 190820
        },
        {
            "buffer" : 0,
            "byteLength" : 288,
            "byteOffset" : 191108
        },
        {
            "buffer" : 0,
            "byteLength" : 192,
            "byteOffset" : 191396
        },
        {
            "buffer" : 0,
            "byteLength" : 72,
            "byteOffset" : 191588
        }
    ],
    "buffers" : [
        {
            "byteLength" : 191660,
            "uri" : "data:application/octet-stream;base64,"
        }
    ]
}
