{
    "asset" : {
        "generator" : "Khronos glTF Blender I/O v1.0.5",
        "version" : "2.0"
    },
    "scene" : 0,
    "scenes" : [
        {
            "name" : "Scene",
            "nodes" : [
                0,
                1,
                2,
                3,
                4,
                5,
                6,
                7,
                8
            ]
        }
    ],
    "nodes" : [
        {
            "name" : "Light",
            "rotation" : [
                0.16907575726509094,
                0.7558803558349609,
                -0.27217137813568115,
                0.570947527885437
            ],
            "translation" : [
                4.076245307922363,
                13.522805213928223,
                -1.0054539442062378
            ]
        },
        {
            "name" : "Camera",
            "rotation" : [
                0.483536034822464,
                0.33687159419059753,
                -0.20870360732078552,
                0.7804827094078064
            ],
            "translation" : [
                7.358891487121582,
                12.577252388000488,
                6.925790786743164
            ]
        },
        {
            "mesh" : 0,
            "name" : "Back Pillars",
            "rotation" : [
                0.7071068286895752,
                0,
                0,
                0.7071067094802856
            ],
            "translation" : [
                -40.6964111328125,
                7.533357620239258,
                -1.898958683013916
            ]
        },
        {
            "name" : "Light.001",
            "rotation" : [
                0.5232754945755005,
                0.34203392267227173,
                -0.7269423604011536,
                0.284166157245636
            ],
            "translation" : [
                4.076245307922363,
                13.522806167602539,
                -1.0054532289505005
            ]
        },
        {
            "name" : "Camera.001",
            "rotation" : [
                0.8937963247299194,
                0.09062855690717697,
                -0.3857799172401428,
                0.20997287333011627
            ],
            "translation" : [
                7.358891487121582,
                12.577251434326172,
                6.925792217254639
            ]
        },
        {
            "mesh" : 1,
            "name" : "Bradley Hall",
            "rotation" : [
                1,
                0,
                0,
                -1.3435885648505064e-07
            ],
            "translation" : [
                0,
                7.618943214416504,
                0
            ]
        },
        {
            "mesh" : 2,
            "name" : "Canopies",
            "rotation" : [
                0.7071068286895752,
                0,
                0,
                0.7071067094802856
            ],
            "translation" : [
                -45.339561462402344,
                7.618943214416504,
                0
            ]
        },
        {
            "mesh" : 3,
            "name" : "Front Pillars",
            "rotation" : [
                0.7071068286895752,
                0,
                0,
                0.7071067094802856
            ],
            "translation" : [
                52.668006896972656,
                7.6189470291137695,
                -29.578704833984375
            ]
        },
        {
            "mesh" : 4,
            "name" : "Staircase",
            "rotation" : [
                0.7071068286895752,
                0,
                0,
                0.7071067094802856
            ],
            "translation" : [
                37.37908935546875,
                0.8301402926445007,
                0.04713810235261917
            ]
        }
    ],
    "materials" : [
        {
            "doubleSided" : true,
            "name" : "CityEngineMaterial",
            "pbrMetallicRoughness" : {
                "baseColorTexture" : {
                    "index" : 0,
                    "texCoord" : 0
                },
                "metallicFactor" : 0,
                "roughnessFactor" : 0.5
            }
        },
        {
            "doubleSided" : true,
            "name" : "Material.002",
            "pbrMetallicRoughness" : {
                "baseColorTexture" : {
                    "index" : 1,
                    "texCoord" : 0
                },
                "metallicFactor" : 0,
                "roughnessFactor" : 0.5
            }
        },
        {
            "doubleSided" : true,
            "name" : "Material.005",
            "pbrMetallicRoughness" : {
                "baseColorFactor" : [
                    0.800000011920929,
                    0.800000011920929,
                    0.800000011920929,
                    1
                ],
                "metallicFactor" : 0,
                "roughnessFactor" : 0.5
            }
        },
        {
            "doubleSided" : true,
            "name" : "Material",
            "pbrMetallicRoughness" : {
                "baseColorTexture" : {
                    "index" : 2,
                    "texCoord" : 0
                },
                "metallicFactor" : 0,
                "roughnessFactor" : 0.5
            }
        },
        {
            "doubleSided" : true,
            "name" : "Material.003",
            "pbrMetallicRoughness" : {
                "baseColorTexture" : {
                    "index" : 3,
                    "texCoord" : 0
                },
                "metallicFactor" : 0,
                "roughnessFactor" : 0.5
            }
        }
    ],
    "meshes" : [
        {
            "name" : "Pillars",
            "primitives" : [
                {
                    "attributes" : {
                        "POSITION" : 0,
                        "NORMAL" : 1,
                        "TEXCOORD_0" : 2
                    },
                    "indices" : 3
                }
            ]
        },
        {
            "name" : "Bradley Hall",
            "primitives" : [
                {
                    "attributes" : {
                        "POSITION" : 4,
                        "NORMAL" : 5,
                        "TEXCOORD_0" : 6
                    },
                    "indices" : 7,
                    "material" : 0
                },
                {
                    "attributes" : {
                        "POSITION" : 8,
                        "NORMAL" : 9,
                        "TEXCOORD_0" : 10
                    },
                    "indices" : 11,
                    "material" : 1
                }
            ]
        },
        {
            "name" : "Cylinder",
            "primitives" : [
                {
                    "attributes" : {
                        "POSITION" : 12,
                        "NORMAL" : 13,
                        "TEXCOORD_0" : 14
                    },
                    "indices" : 15,
                    "material" : 2
                }
            ]
        },
        {
            "name" : "Cube.001",
            "primitives" : [
                {
                    "attributes" : {
                        "POSITION" : 16,
                        "NORMAL" : 17,
                        "TEXCOORD_0" : 18
                    },
                    "indices" : 19,
                    "material" : 3
                }
            ]
        },
        {
            "name" : "Cube.002",
            "primitives" : [
                {
                    "attributes" : {
                        "POSITION" : 20,
                        "NORMAL" : 21,
                        "TEXCOORD_0" : 22
                    },
                    "indices" : 23,
                    "material" : 4
                }
            ]
        }
    ],
    "textures" : [
        {
            "source" : 0
        },
        {
            "source" : 1
        },
        {
            "source" : 0
        },
        {
            "source" : 0
        }
    ],
    "images" : [
        {
            "bufferView" : 8,
            "mimeType" : "image/png",
            "name" : "Bradley_Hall_Exterior_1 (1)"
        },
        {
            "bufferView" : 13,
            "mimeType" : "image/jpeg",
            "name" : "glass_texture_6"
        }
    ],
    "accessors" : [
        {
            "bufferView" : 0,
            "componentType" : 5126,
            "count" : 858,
            "max" : [
                8.54131031036377,
                11.692852020263672,
                7.443019866943359
            ],
            "min" : [
                1.1890451908111572,
                -13.610160827636719,
                -11.347676277160645
            ],
            "type" : "VEC3"
        },
        {
            "bufferView" : 1,
            "componentType" : 5126,
            "count" : 858,
            "type" : "VEC3"
        },
        {
            "bufferView" : 2,
            "componentType" : 5126,
            "count" : 858,
            "type" : "VEC2"
        },
        {
            "bufferView" : 3,
            "componentType" : 5123,
            "count" : 984,
            "type" : "SCALAR"
        },
        {
            "bufferView" : 4,
            "componentType" : 5126,
            "count" : 13330,
            "max" : [
                40.9375,
                7.399998188018799,
                38.5
            ],
            "min" : [
                -39.70745849609375,
                -23.47187042236328,
                -39
            ],
            "type" : "VEC3"
        },
        {
            "bufferView" : 5,
            "componentType" : 5126,
            "count" : 13330,
            "type" : "VEC3"
        },
        {
            "bufferView" : 6,
            "componentType" : 5126,
            "count" : 13330,
            "type" : "VEC2"
        },
        {
            "bufferView" : 7,
            "componentType" : 5123,
            "count" : 20418,
            "type" : "SCALAR"
        },
        {
            "bufferView" : 9,
            "componentType" : 5126,
            "count" : 1150,
            "max" : [
                40.90144348144531,
                6.334414482116699,
                35.93839645385742
            ],
            "min" : [
                33.1689338684082,
                -13.95466423034668,
                -37.88493728637695
            ],
            "type" : "VEC3"
        },
        {
            "bufferView" : 10,
            "componentType" : 5126,
            "count" : 1150,
            "type" : "VEC3"
        },
        {
            "bufferView" : 11,
            "componentType" : 5126,
            "count" : 1150,
            "type" : "VEC2"
        },
        {
            "bufferView" : 12,
            "componentType" : 5123,
            "count" : 1932,
            "type" : "SCALAR"
        },
        {
            "bufferView" : 14,
            "componentType" : 5126,
            "count" : 344,
            "max" : [
                14.892959594726562,
                9.368379592895508,
                3.0700016021728516
            ],
            "min" : [
                6.197552680969238,
                -14.605262756347656,
                -2.885875701904297
            ],
            "type" : "VEC3"
        },
        {
            "bufferView" : 15,
            "componentType" : 5126,
            "count" : 344,
            "type" : "VEC3"
        },
        {
            "bufferView" : 16,
            "componentType" : 5126,
            "count" : 344,
            "type" : "VEC2"
        },
        {
            "bufferView" : 17,
            "componentType" : 5123,
            "count" : 384,
            "type" : "SCALAR"
        },
        {
            "bufferView" : 18,
            "componentType" : 5126,
            "count" : 542,
            "max" : [
                -10.475279808044434,
                39.16112518310547,
                7.631980895996094
            ],
            "min" : [
                -17.145095825195312,
                21.879819869995117,
                -12.703446388244629
            ],
            "type" : "VEC3"
        },
        {
            "bufferView" : 19,
            "componentType" : 5126,
            "count" : 542,
            "type" : "VEC3"
        },
        {
            "bufferView" : 20,
            "componentType" : 5126,
            "count" : 542,
            "type" : "VEC2"
        },
        {
            "bufferView" : 21,
            "componentType" : 5123,
            "count" : 552,
            "type" : "SCALAR"
        },
        {
            "bufferView" : 22,
            "componentType" : 5126,
            "count" : 439,
            "max" : [
                4.478512287139893,
                7.734918594360352,
                1
            ],
            "min" : [
                -1.0255565643310547,
                -5.88179874420166,
                -0.80593341588974
            ],
            "type" : "VEC3"
        },
        {
            "bufferView" : 23,
            "componentType" : 5126,
            "count" : 439,
            "type" : "VEC3"
        },
        {
            "bufferView" : 24,
            "componentType" : 5126,
            "count" : 439,
            "type" : "VEC2"
        },
        {
            "bufferView" : 25,
            "componentType" : 5123,
            "count" : 516,
            "type" : "SCALAR"
        }
    ],
    "bufferViews" : [
        {
            "buffer" : 0,
            "byteLength" : 10296,
            "byteOffset" : 0
        },
        {
            "buffer" : 0,
            "byteLength" : 10296,
            "byteOffset" : 10296
        },
        {
            "buffer" : 0,
            "byteLength" : 6864,
            "byteOffset" : 20592
        },
        {
            "buffer" : 0,
            "byteLength" : 1968,
            "byteOffset" : 27456
        },
        {
            "buffer" : 0,
            "byteLength" : 159960,
            "byteOffset" : 29424
        },
        {
            "buffer" : 0,
            "byteLength" : 159960,
            "byteOffset" : 189384
        },
        {
            "buffer" : 0,
            "byteLength" : 106640,
            "byteOffset" : 349344
        },
        {
            "buffer" : 0,
            "byteLength" : 40836,
            "byteOffset" : 455984
        },
        {
            "buffer" : 0,
            "byteLength" : 1767480,
            "byteOffset" : 496820
        },
        {
            "buffer" : 0,
            "byteLength" : 13800,
            "byteOffset" : 2264300
        },
        {
            "buffer" : 0,
            "byteLength" : 13800,
            "byteOffset" : 2278100
        },
        {
            "buffer" : 0,
            "byteLength" : 9200,
            "byteOffset" : 2291900
        },
        {
            "buffer" : 0,
            "byteLength" : 3864,
            "byteOffset" : 2301100
        },
        {
            "buffer" : 0,
            "byteLength" : 52764,
            "byteOffset" : 2304964
        },
        {
            "buffer" : 0,
            "byteLength" : 4128,
            "byteOffset" : 2357728
        },
        {
            "buffer" : 0,
            "byteLength" : 4128,
            "byteOffset" : 2361856
        },
        {
            "buffer" : 0,
            "byteLength" : 2752,
            "byteOffset" : 2365984
        },
        {
            "buffer" : 0,
            "byteLength" : 768,
            "byteOffset" : 2368736
        },
        {
            "buffer" : 0,
            "byteLength" : 6504,
            "byteOffset" : 2369504
        },
        {
            "buffer" : 0,
            "byteLength" : 6504,
            "byteOffset" : 2376008
        },
        {
            "buffer" : 0,
            "byteLength" : 4336,
            "byteOffset" : 2382512
        },
        {
            "buffer" : 0,
            "byteLength" : 1104,
            "byteOffset" : 2386848
        },
        {
            "buffer" : 0,
            "byteLength" : 5268,
            "byteOffset" : 2387952
        },
        {
            "buffer" : 0,
            "byteLength" : 5268,
            "byteOffset" : 2393220
        },
        {
            "buffer" : 0,
            "byteLength" : 3512,
            "byteOffset" : 2398488
        },
        {
            "buffer" : 0,
            "byteLength" : 1032,
            "byteOffset" : 2402000
        }
    ],
    "buffers" : [
        {
            "byteLength" : 2403032,
            "uri" : "data:application/octet-stream;base64,"
        }
    ]
}
