{
    "asset" : {
        "generator" : "Khronos glTF Blender I/O v1.0.5",
        "version" : "2.0"
    },
    "scene" : 0,
    "scenes" : [
        {
            "name" : "Scene",
            "nodes" : [
                0,
                1,
                2,
                3
            ]
        }
    ],
    "nodes" : [
        {
            "name" : "Light",
            "rotation" : [
                0.16907575726509094,
                0.7558803558349609,
                -0.27217137813568115,
                0.570947527885437
            ],
            "translation" : [
                4.076245307922363,
                5.903861999511719,
                -1.0054539442062378
            ]
        },
        {
            "name" : "Camera",
            "rotation" : [
                0.483536034822464,
                0.33687159419059753,
                -0.20870360732078552,
                0.7804827094078064
            ],
            "translation" : [
                7.358891487121582,
                4.958309173583984,
                6.925790786743164
            ]
        },
        {
            "name" : "Empty",
            "rotation" : [
                0,
                0.7071067690849304,
                0,
                -0.7071067690849304
            ],
            "translation" : [
                -12.828119277954102,
                0,
                -7.634512424468994
            ]
        },
        {
            "mesh" : 0,
            "name" : "Plane",
            "scale" : [
                30,
                30,
                30
            ],
            "translation" : [
                -6.167434215545654,
                0,
                8.894615173339844
            ]
        }
    ],
    "meshes" : [
        {
            "name" : "Plane.003",
            "primitives" : [
                {
                    "attributes" : {
                        "POSITION" : 0,
                        "NORMAL" : 1,
                        "TEXCOORD_0" : 2
                    },
                    "indices" : 3
                }
            ]
        }
    ],
    "accessors" : [
        {
            "bufferView" : 0,
            "componentType" : 5126,
            "count" : 3036,
            "max" : [
                0.8966319561004639,
                0.3285379111766815,
                1.024976372718811
            ],
            "min" : [
                -1.1719774007797241,
                -0.3085753321647644,
                -0.8735849261283875
            ],
            "type" : "VEC3"
        },
        {
            "bufferView" : 1,
            "componentType" : 5126,
            "count" : 3036,
            "type" : "VEC3"
        },
        {
            "bufferView" : 2,
            "componentType" : 5126,
            "count" : 3036,
            "type" : "VEC2"
        },
        {
            "bufferView" : 3,
            "componentType" : 5123,
            "count" : 5022,
            "type" : "SCALAR"
        }
    ],
    "bufferViews" : [
        {
            "buffer" : 0,
            "byteLength" : 36432,
            "byteOffset" : 0
        },
        {
            "buffer" : 0,
            "byteLength" : 36432,
            "byteOffset" : 36432
        },
        {
            "buffer" : 0,
            "byteLength" : 24288,
            "byteOffset" : 72864
        },
        {
            "buffer" : 0,
            "byteLength" : 10044,
            "byteOffset" : 97152
        }
    ],
    "buffers" : [
        {
            "byteLength" : 107196,
            "uri" : "data:application/octet-stream;base64,"
        }
    ]
}
