{
    "asset" : {
        "generator" : "Khronos glTF Blender I/O v1.0.5",
        "version" : "2.0"
    },
    "scene" : 0,
    "scenes" : [
        {
            "name" : "Scene",
            "nodes" : [
                0
            ]
        }
    ],
    "nodes" : [
        {
            "mesh" : 0,
            "name" : "Plane",
            "scale" : [
                47.15583801269531,
                47.155845642089844,
                47.155845642089844
            ]
        }
    ],
    "materials" : [
        {
            "doubleSided" : true,
            "emissiveFactor" : [
                0,
                0,
                0
            ],
            "name" : "Material.001",
            "pbrMetallicRoughness" : {
                "baseColorTexture" : {
                    "index" : 0,
                    "texCoord" : 0
                },
                "metallicFactor" : 0,
                "roughnessFactor" : 1
            }
        }
    ],
    "meshes" : [
        {
            "name" : "Plane",
            "primitives" : [
                {
                    "attributes" : {
                        "POSITION" : 0,
                        "NORMAL" : 1,
                        "TEXCOORD_0" : 2
                    },
                    "indices" : 3,
                    "material" : 0
                }
            ]
        }
    ],
    "textures" : [
        {
            "source" : 0
        }
    ],
    "images" : [
        {
            "bufferView" : 4,
            "mimeType" : "image/png",
            "name" : "Image_0"
        }
    ],
    "accessors" : [
        {
            "bufferView" : 0,
            "componentType" : 5126,
            "count" : 1679,
            "max" : [
                4.080281734466553,
                1.5899658478701895e-07,
                2.564704418182373
            ],
            "min" : [
                -3.384465217590332,
                -6.925923656808664e-08,
                -2.05841064453125
            ],
            "type" : "VEC3"
        },
        {
            "bufferView" : 1,
            "componentType" : 5126,
            "count" : 1679,
            "type" : "VEC3"
        },
        {
            "bufferView" : 2,
            "componentType" : 5126,
            "count" : 1679,
            "type" : "VEC2"
        },
        {
            "bufferView" : 3,
            "componentType" : 5123,
            "count" : 2037,
            "type" : "SCALAR"
        }
    ],
    "bufferViews" : [
        {
            "buffer" : 0,
            "byteLength" : 20148,
            "byteOffset" : 0
        },
        {
            "buffer" : 0,
            "byteLength" : 20148,
            "byteOffset" : 20148
        },
        {
            "buffer" : 0,
            "byteLength" : 13432,
            "byteOffset" : 40296
        },
        {
            "buffer" : 0,
            "byteLength" : 4074,
            "byteOffset" : 53728
        },
        {
            "buffer" : 0,
            "byteLength" : 552612,
            "byteOffset" : 57804
        }
    ],
    "buffers" : [
        {
            "byteLength" : 610416,
            "uri" : "data:application/octet-stream;base64,"
        }
    ]
}
