{
    "asset" : {
        "generator" : "Khronos glTF Blender I/O v1.0.5",
        "version" : "2.0"
    },
    "scene" : 0,
    "scenes" : [
        {
            "name" : "Scene",
            "nodes" : [
                0,
                1,
                2,
                3,
                4,
                5,
                6
            ]
        }
    ],
    "nodes" : [
        {
            "name" : "Camera",
            "rotation" : [
                0.483536034822464,
                0.33687159419059753,
                -0.20870360732078552,
                0.7804827094078064
            ],
            "translation" : [
                7.358891487121582,
                4.958309173583984,
                6.925790786743164
            ]
        },
        {
            "name" : "Camera.001",
            "rotation" : [
                -0.7804825901985168,
                0.20870345830917358,
                0.33687177300453186,
                0.4835361838340759
            ],
            "translation" : [
                7.358891487121582,
                4.958308219909668,
                6.925793647766113
            ]
        },
        {
            "name" : "Camera.002",
            "rotation" : [
                -0.20997296273708344,
                0.3857799470424652,
                0.09062869846820831,
                0.8937962055206299
            ],
            "translation" : [
                7.358891487121582,
                4.95830774307251,
                6.925795078277588
            ]
        },
        {
            "name" : "Node",
            "translation" : [
                0,
                5.500001430511475,
                0
            ]
        },
        {
            "mesh" : 0,
            "name" : "Plane",
            "rotation" : [
                1,
                0,
                0,
                -1.3435885648505064e-07
            ],
            "scale" : [
                47.15583801269531,
                47.15584182739258,
                47.15584182739258
            ]
        },
        {
            "name" : "Empty.001",
            "rotation" : [
                0.5,
                -0.5000000596046448,
                0.5,
                0.4999999403953552
            ],
            "translation" : [
                28.162113189697266,
                2.4009526896406896e-05,
                -178.69703674316406
            ]
        },
        {
            "name" : "Sun",
            "translation" : [
                0,
                164.49725341796875,
                0
            ]
        }
    ],
    "materials" : [
        {
            "doubleSided" : true,
            "name" : "Material.001",
            "pbrMetallicRoughness" : {
                "baseColorTexture" : {
                    "index" : 0,
                    "texCoord" : 0
                },
                "metallicFactor" : 0,
                "roughnessFactor" : 1
            }
        }
    ],
    "meshes" : [
        {
            "name" : "Plane",
            "primitives" : [
                {
                    "attributes" : {
                        "POSITION" : 0,
                        "NORMAL" : 1,
                        "TEXCOORD_0" : 2
                    },
                    "indices" : 3,
                    "material" : 0
                }
            ]
        }
    ],
    "textures" : [
        {
            "source" : 0
        }
    ],
    "images" : [
        {
            "bufferView" : 4,
            "mimeType" : "image/png",
            "name" : "Image_0"
        }
    ],
    "accessors" : [
        {
            "bufferView" : 0,
            "componentType" : 5126,
            "count" : 1635,
            "max" : [
                4.080281734466553,
                6.925923656808664e-08,
                2.05841064453125
            ],
            "min" : [
                -3.384465217590332,
                -1.5899658478701895e-07,
                -2.564704418182373
            ],
            "type" : "VEC3"
        },
        {
            "bufferView" : 1,
            "componentType" : 5126,
            "count" : 1635,
            "type" : "VEC3"
        },
        {
            "bufferView" : 2,
            "componentType" : 5126,
            "count" : 1635,
            "type" : "VEC2"
        },
        {
            "bufferView" : 3,
            "componentType" : 5123,
            "count" : 2043,
            "type" : "SCALAR"
        }
    ],
    "bufferViews" : [
        {
            "buffer" : 0,
            "byteLength" : 19620,
            "byteOffset" : 0
        },
        {
            "buffer" : 0,
            "byteLength" : 19620,
            "byteOffset" : 19620
        },
        {
            "buffer" : 0,
            "byteLength" : 13080,
            "byteOffset" : 39240
        },
        {
            "buffer" : 0,
            "byteLength" : 4086,
            "byteOffset" : 52320
        },
        {
            "buffer" : 0,
            "byteLength" : 539656,
            "byteOffset" : 56408
        }
    ],
    "buffers" : [
        {
            "byteLength" : 596064,
            "uri" : "data:application/octet-stream;base64,"
        }
    ]
}
