{
    "asset" : {
        "generator" : "Khronos glTF Blender I/O v1.0.5",
        "version" : "2.0"
    },
    "scene" : 0,
    "scenes" : [
        {
            "name" : "Scene",
            "nodes" : [
                0,
                1,
                2,
                3,
                4,
                5,
                6,
                7,
                8,
                9,
                10
            ]
        }
    ],
    "nodes" : [
        {
            "name" : "Light",
            "rotation" : [
                0.16907575726509094,
                0.7558803558349609,
                -0.27217137813568115,
                0.570947527885437
            ],
            "translation" : [
                4.076245307922363,
                5.903861999511719,
                -1.0054539442062378
            ]
        },
        {
            "name" : "Camera",
            "rotation" : [
                0.483536034822464,
                0.33687159419059753,
                -0.20870360732078552,
                0.7804827094078064
            ],
            "translation" : [
                7.358891487121582,
                4.958309173583984,
                6.925790786743164
            ]
        },
        {
            "mesh" : 0,
            "name" : "StudentCenter_0",
            "rotation" : [
                0.7071068286895752,
                0,
                0,
                0.7071067094802856
            ]
        },
        {
            "mesh" : 1,
            "name" : "Cylinder",
            "rotation" : [
                0.7069665193557739,
                -0.0140849519520998,
                0.014084952883422375,
                0.7069664597511292
            ],
            "scale" : [
                3.784322738647461,
                2.5611159801483154,
                1.2733204364776611
            ],
            "translation" : [
                -18.427881240844727,
                -0.9329920411109924,
                29.484577178955078
            ]
        },
        {
            "mesh" : 2,
            "name" : "Cylinder.001"
        },
        {
            "mesh" : 3,
            "name" : "Cylinder.002",
            "scale" : [
                0.53024822473526,
                0.53024822473526,
                0.53024822473526
            ],
            "translation" : [
                18.205522537231445,
                -3.1893374919891357,
                23.942094802856445
            ]
        },
        {
            "mesh" : 4,
            "name" : "Cube",
            "scale" : [
                0.53024822473526,
                0.53024822473526,
                0.53024822473526
            ],
            "translation" : [
                18.205522537231445,
                -3.1893374919891357,
                23.942094802856445
            ]
        },
        {
            "mesh" : 5,
            "name" : "Cube.002",
            "scale" : [
                0.53024822473526,
                0.53024822473526,
                0.53024822473526
            ],
            "translation" : [
                16.889631271362305,
                -3.1893374919891357,
                20.867637634277344
            ]
        },
        {
            "mesh" : 6,
            "name" : "Cylinder.004",
            "scale" : [
                0.53024822473526,
                0.53024822473526,
                0.53024822473526
            ],
            "translation" : [
                16.889631271362305,
                -3.1893374919891357,
                20.867637634277344
            ]
        },
        {
            "mesh" : 7,
            "name" : "Cube.003",
            "scale" : [
                0.53024822473526,
                0.53024822473526,
                0.53024822473526
            ],
            "translation" : [
                13.770429611206055,
                -3.1893374919891357,
                10.488068580627441
            ]
        },
        {
            "mesh" : 8,
            "name" : "Cylinder.005",
            "scale" : [
                0.53024822473526,
                0.53024822473526,
                0.53024822473526
            ],
            "translation" : [
                13.770429611206055,
                -3.1893374919891357,
                10.488068580627441
            ]
        }
    ],
    "materials" : [
        {
            "doubleSided" : true,
            "name" : "CityEngineMaterial",
            "pbrMetallicRoughness" : {
                "baseColorFactor" : [
                    0.800000011920929,
                    0.800000011920929,
                    0.800000011920929,
                    1
                ],
                "metallicFactor" : 0,
                "roughnessFactor" : 0.5
            }
        }
    ],
    "meshes" : [
        {
            "name" : "StudentCenter_0",
            "primitives" : [
                {
                    "attributes" : {
                        "POSITION" : 0,
                        "NORMAL" : 1
                    },
                    "indices" : 2,
                    "material" : 0
                }
            ]
        },
        {
            "name" : "Cylinder",
            "primitives" : [
                {
                    "attributes" : {
                        "POSITION" : 3,
                        "NORMAL" : 4,
                        "TEXCOORD_0" : 5
                    },
                    "indices" : 6
                }
            ]
        },
        {
            "name" : "Cylinder.001",
            "primitives" : [
                {
                    "attributes" : {
                        "POSITION" : 7,
                        "NORMAL" : 8,
                        "TEXCOORD_0" : 9
                    },
                    "indices" : 10
                }
            ]
        },
        {
            "name" : "Cylinder.002",
            "primitives" : [
                {
                    "attributes" : {
                        "POSITION" : 11,
                        "NORMAL" : 12,
                        "TEXCOORD_0" : 13
                    },
                    "indices" : 14
                }
            ]
        },
        {
            "name" : "Cube.001",
            "primitives" : [
                {
                    "attributes" : {
                        "POSITION" : 15,
                        "NORMAL" : 16,
                        "TEXCOORD_0" : 17
                    },
                    "indices" : 18
                }
            ]
        },
        {
            "name" : "Cube.003",
            "primitives" : [
                {
                    "attributes" : {
                        "POSITION" : 19,
                        "NORMAL" : 20,
                        "TEXCOORD_0" : 21
                    },
                    "indices" : 18
                }
            ]
        },
        {
            "name" : "Cylinder.004",
            "primitives" : [
                {
                    "attributes" : {
                        "POSITION" : 22,
                        "NORMAL" : 23,
                        "TEXCOORD_0" : 24
                    },
                    "indices" : 14
                }
            ]
        },
        {
            "name" : "Cube.004",
            "primitives" : [
                {
                    "attributes" : {
                        "POSITION" : 25,
                        "NORMAL" : 26,
                        "TEXCOORD_0" : 27
                    },
                    "indices" : 18
                }
            ]
        },
        {
            "name" : "Cylinder.005",
            "primitives" : [
                {
                    "attributes" : {
                        "POSITION" : 28,
                        "NORMAL" : 29,
                        "TEXCOORD_0" : 30
                    },
                    "indices" : 14
                }
            ]
        }
    ],
    "accessors" : [
        {
            "bufferView" : 0,
            "componentType" : 5126,
            "count" : 672,
            "max" : [
                18.71875,
                63.5,
                3.6999990940093994
            ],
            "min" : [
                -41.125,
                -67,
                -7.489048004150391
            ],
            "type" : "VEC3"
        },
        {
            "bufferView" : 1,
            "componentType" : 5126,
            "count" : 672,
            "type" : "VEC3"
        },
        {
            "bufferView" : 2,
            "componentType" : 5123,
            "count" : 1170,
            "type" : "SCALAR"
        },
        {
            "bufferView" : 3,
            "componentType" : 5126,
            "count" : 48,
            "max" : [
                -0.046926409006118774,
                1,
                0.04847587272524834
            ],
            "min" : [
                -1,
                -1,
                -0.9935839176177979
            ],
            "type" : "VEC3"
        },
        {
            "bufferView" : 4,
            "componentType" : 5126,
            "count" : 48,
            "type" : "VEC3"
        },
        {
            "bufferView" : 5,
            "componentType" : 5126,
            "count" : 48,
            "type" : "VEC2"
        },
        {
            "bufferView" : 6,
            "componentType" : 5123,
            "count" : 84,
            "type" : "SCALAR"
        },
        {
            "bufferView" : 7,
            "componentType" : 5126,
            "count" : 126,
            "max" : [
                15.499005317687988,
                2.966606616973877,
                16.580629348754883
            ],
            "min" : [
                10.988212585449219,
                -3.6960363388061523,
                12.914990425109863
            ],
            "type" : "VEC3"
        },
        {
            "bufferView" : 8,
            "componentType" : 5126,
            "count" : 126,
            "type" : "VEC3"
        },
        {
            "bufferView" : 9,
            "componentType" : 5126,
            "count" : 126,
            "type" : "VEC2"
        },
        {
            "bufferView" : 10,
            "componentType" : 5123,
            "count" : 240,
            "type" : "SCALAR"
        },
        {
            "bufferView" : 11,
            "componentType" : 5126,
            "count" : 192,
            "max" : [
                0.3853512108325958,
                4.213472366333008,
                0.38535594940185547
            ],
            "min" : [
                -0.38535526394844055,
                -1,
                -0.38535064458847046
            ],
            "type" : "VEC3"
        },
        {
            "bufferView" : 12,
            "componentType" : 5126,
            "count" : 192,
            "type" : "VEC3"
        },
        {
            "bufferView" : 13,
            "componentType" : 5126,
            "count" : 192,
            "type" : "VEC2"
        },
        {
            "bufferView" : 14,
            "componentType" : 5123,
            "count" : 372,
            "type" : "SCALAR"
        },
        {
            "bufferView" : 15,
            "componentType" : 5126,
            "count" : 24,
            "max" : [
                0.56541907787323,
                -0.5139977931976318,
                0.5654231905937195
            ],
            "min" : [
                -0.5654231905937195,
                -1,
                -0.5654190182685852
            ],
            "type" : "VEC3"
        },
        {
            "bufferView" : 16,
            "componentType" : 5126,
            "count" : 24,
            "type" : "VEC3"
        },
        {
            "bufferView" : 17,
            "componentType" : 5126,
            "count" : 24,
            "type" : "VEC2"
        },
        {
            "bufferView" : 18,
            "componentType" : 5123,
            "count" : 36,
            "type" : "SCALAR"
        },
        {
            "bufferView" : 19,
            "componentType" : 5126,
            "count" : 24,
            "max" : [
                0.56541907787323,
                -0.5139977931976318,
                0.5654231905937195
            ],
            "min" : [
                -0.5654231905937195,
                -1,
                -0.5654190182685852
            ],
            "type" : "VEC3"
        },
        {
            "bufferView" : 20,
            "componentType" : 5126,
            "count" : 24,
            "type" : "VEC3"
        },
        {
            "bufferView" : 21,
            "componentType" : 5126,
            "count" : 24,
            "type" : "VEC2"
        },
        {
            "bufferView" : 22,
            "componentType" : 5126,
            "count" : 192,
            "max" : [
                0.3853512108325958,
                4.213472366333008,
                0.38535594940185547
            ],
            "min" : [
                -0.38535526394844055,
                -1,
                -0.38535064458847046
            ],
            "type" : "VEC3"
        },
        {
            "bufferView" : 23,
            "componentType" : 5126,
            "count" : 192,
            "type" : "VEC3"
        },
        {
            "bufferView" : 24,
            "componentType" : 5126,
            "count" : 192,
            "type" : "VEC2"
        },
        {
            "bufferView" : 25,
            "componentType" : 5126,
            "count" : 24,
            "max" : [
                0.56541907787323,
                -0.5139977931976318,
                0.5654231905937195
            ],
            "min" : [
                -0.5654231905937195,
                -1,
                -0.5654190182685852
            ],
            "type" : "VEC3"
        },
        {
            "bufferView" : 26,
            "componentType" : 5126,
            "count" : 24,
            "type" : "VEC3"
        },
        {
            "bufferView" : 27,
            "componentType" : 5126,
            "count" : 24,
            "type" : "VEC2"
        },
        {
            "bufferView" : 28,
            "componentType" : 5126,
            "count" : 192,
            "max" : [
                0.3853512108325958,
                4.213472366333008,
                0.38535594940185547
            ],
            "min" : [
                -0.38535526394844055,
                -1,
                -0.38535064458847046
            ],
            "type" : "VEC3"
        },
        {
            "bufferView" : 29,
            "componentType" : 5126,
            "count" : 192,
            "type" : "VEC3"
        },
        {
            "bufferView" : 30,
            "componentType" : 5126,
            "count" : 192,
            "type" : "VEC2"
        }
    ],
    "bufferViews" : [
        {
            "buffer" : 0,
            "byteLength" : 8064,
            "byteOffset" : 0
        },
        {
            "buffer" : 0,
            "byteLength" : 8064,
            "byteOffset" : 8064
        },
        {
            "buffer" : 0,
            "byteLength" : 2340,
            "byteOffset" : 16128
        },
        {
            "buffer" : 0,
            "byteLength" : 576,
            "byteOffset" : 18468
        },
        {
            "buffer" : 0,
            "byteLength" : 576,
            "byteOffset" : 19044
        },
        {
            "buffer" : 0,
            "byteLength" : 384,
            "byteOffset" : 19620
        },
        {
            "buffer" : 0,
            "byteLength" : 168,
            "byteOffset" : 20004
        },
        {
            "buffer" : 0,
            "byteLength" : 1512,
            "byteOffset" : 20172
        },
        {
            "buffer" : 0,
            "byteLength" : 1512,
            "byteOffset" : 21684
        },
        {
            "buffer" : 0,
            "byteLength" : 1008,
            "byteOffset" : 23196
        },
        {
            "buffer" : 0,
            "byteLength" : 480,
            "byteOffset" : 24204
        },
        {
            "buffer" : 0,
            "byteLength" : 2304,
            "byteOffset" : 24684
        },
        {
            "buffer" : 0,
            "byteLength" : 2304,
            "byteOffset" : 26988
        },
        {
            "buffer" : 0,
            "byteLength" : 1536,
            "byteOffset" : 29292
        },
        {
            "buffer" : 0,
            "byteLength" : 744,
            "byteOffset" : 30828
        },
        {
            "buffer" : 0,
            "byteLength" : 288,
            "byteOffset" : 31572
        },
        {
            "buffer" : 0,
            "byteLength" : 288,
            "byteOffset" : 31860
        },
        {
            "buffer" : 0,
            "byteLength" : 192,
            "byteOffset" : 32148
        },
        {
            "buffer" : 0,
            "byteLength" : 72,
            "byteOffset" : 32340
        },
        {
            "buffer" : 0,
            "byteLength" : 288,
            "byteOffset" : 32412
        },
        {
            "buffer" : 0,
            "byteLength" : 288,
            "byteOffset" : 32700
        },
        {
            "buffer" : 0,
            "byteLength" : 192,
            "byteOffset" : 32988
        },
        {
            "buffer" : 0,
            "byteLength" : 2304,
            "byteOffset" : 33180
        },
        {
            "buffer" : 0,
            "byteLength" : 2304,
            "byteOffset" : 35484
        },
        {
            "buffer" : 0,
            "byteLength" : 1536,
            "byteOffset" : 37788
        },
        {
            "buffer" : 0,
            "byteLength" : 288,
            "byteOffset" : 39324
        },
        {
            "buffer" : 0,
            "byteLength" : 288,
            "byteOffset" : 39612
        },
        {
            "buffer" : 0,
            "byteLength" : 192,
            "byteOffset" : 39900
        },
        {
            "buffer" : 0,
            "byteLength" : 2304,
            "byteOffset" : 40092
        },
        {
            "buffer" : 0,
            "byteLength" : 2304,
            "byteOffset" : 42396
        },
        {
            "buffer" : 0,
            "byteLength" : 1536,
            "byteOffset" : 44700
        }
    ],
    "buffers" : [
        {
            "byteLength" : 46236,
            "uri" : "data:application/octet-stream;base64,"
        }
    ]
}
