{
    "asset" : {
        "generator" : "Khronos glTF Blender I/O v1.0.5",
        "version" : "2.0"
    },
    "scene" : 0,
    "scenes" : [
        {
            "name" : "Scene",
            "nodes" : [
                0,
                1,
                2,
                3,
                4,
                5,
                6,
                7,
                8,
                9,
                10,
                11
            ]
        }
    ],
    "nodes" : [
        {
            "mesh" : 0,
            "name" : "Cube"
        },
        {
            "name" : "Light",
            "rotation" : [
                0.16907575726509094,
                0.7558803558349609,
                -0.27217137813568115,
                0.570947527885437
            ],
            "translation" : [
                4.076245307922363,
                5.903861999511719,
                -1.0054539442062378
            ]
        },
        {
            "name" : "Camera",
            "rotation" : [
                0.483536034822464,
                0.33687159419059753,
                -0.20870360732078552,
                0.7804827094078064
            ],
            "translation" : [
                7.358891487121582,
                4.958309173583984,
                6.925790786743164
            ]
        },
        {
            "name" : "Light.001",
            "rotation" : [
                0.5232754945755005,
                0.34203392267227173,
                -0.7269423604011536,
                0.284166157245636
            ],
            "translation" : [
                4.076245307922363,
                13.522807121276855,
                -1.005452275276184
            ]
        },
        {
            "name" : "Camera.001",
            "rotation" : [
                0.8937963247299194,
                0.09062855690717697,
                -0.3857799172401428,
                0.20997287333011627
            ],
            "translation" : [
                7.358891487121582,
                12.577253341674805,
                6.925793647766113
            ]
        },
        {
            "mesh" : 1,
            "name" : "Back Pillars",
            "rotation" : [
                1,
                0,
                0,
                -1.3435885648505064e-07
            ],
            "translation" : [
                -40.8818473815918,
                7.61894416809082,
                -1.6836844682693481
            ]
        },
        {
            "name" : "Light.002",
            "rotation" : [
                -0.5709477066993713,
                0.2721712291240692,
                0.7558802962303162,
                0.16907566785812378
            ],
            "translation" : [
                4.076245307922363,
                13.522808074951172,
                -1.0054515600204468
            ]
        },
        {
            "name" : "Camera.002",
            "rotation" : [
                -0.7804825901985168,
                0.20870345830917358,
                0.33687177300453186,
                0.4835361838340759
            ],
            "translation" : [
                7.358891487121582,
                12.577252388000488,
                6.925795078277588
            ]
        },
        {
            "mesh" : 2,
            "name" : "Bradley Hall",
            "rotation" : [
                -0.7071065902709961,
                0,
                0,
                0.7071069478988647
            ],
            "translation" : [
                0,
                7.61894416809082,
                0
            ]
        },
        {
            "mesh" : 3,
            "name" : "Canopies",
            "rotation" : [
                1,
                0,
                0,
                -1.3435885648505064e-07
            ],
            "translation" : [
                -45.339561462402344,
                7.61894416809082,
                0
            ]
        },
        {
            "mesh" : 4,
            "name" : "Front Pillars",
            "rotation" : [
                1,
                0,
                0,
                -1.3435885648505064e-07
            ],
            "translation" : [
                52.668006896972656,
                7.618951797485352,
                -29.578706741333008
            ]
        },
        {
            "mesh" : 5,
            "name" : "Staircase",
            "rotation" : [
                1,
                0,
                0,
                -1.3435885648505064e-07
            ],
            "translation" : [
                37.37908935546875,
                0.8301404118537903,
                0.04713822156190872
            ]
        }
    ],
    "materials" : [
        {
            "doubleSided" : true,
            "name" : "Material",
            "pbrMetallicRoughness" : {
                "baseColorFactor" : [
                    0.800000011920929,
                    0.800000011920929,
                    0.800000011920929,
                    1
                ],
                "metallicFactor" : 0,
                "roughnessFactor" : 0.4000000059604645
            }
        },
        {
            "doubleSided" : true,
            "name" : "Material.004",
            "pbrMetallicRoughness" : {
                "baseColorFactor" : [
                    0.800000011920929,
                    0.800000011920929,
                    0.800000011920929,
                    1
                ],
                "metallicFactor" : 0,
                "roughnessFactor" : 0.5
            }
        },
        {
            "doubleSided" : true,
            "name" : "CityEngineMaterial",
            "pbrMetallicRoughness" : {
                "baseColorTexture" : {
                    "index" : 0,
                    "texCoord" : 0
                },
                "metallicFactor" : 0,
                "roughnessFactor" : 0.5
            }
        },
        {
            "doubleSided" : true,
            "name" : "Material.002",
            "pbrMetallicRoughness" : {
                "baseColorTexture" : {
                    "index" : 1,
                    "texCoord" : 0
                },
                "metallicFactor" : 0,
                "roughnessFactor" : 0.5
            }
        },
        {
            "doubleSided" : true,
            "name" : "Material.001",
            "pbrMetallicRoughness" : {
                "baseColorTexture" : {
                    "index" : 2,
                    "texCoord" : 0
                },
                "metallicFactor" : 0,
                "roughnessFactor" : 0.5
            }
        },
        {
            "doubleSided" : true,
            "name" : "Material.003",
            "pbrMetallicRoughness" : {
                "baseColorTexture" : {
                    "index" : 3,
                    "texCoord" : 0
                },
                "metallicFactor" : 0,
                "roughnessFactor" : 0.5
            }
        }
    ],
    "meshes" : [
        {
            "name" : "Cube",
            "primitives" : [
                {
                    "attributes" : {
                        "POSITION" : 0,
                        "NORMAL" : 1,
                        "TEXCOORD_0" : 2
                    },
                    "indices" : 3,
                    "material" : 0
                }
            ]
        },
        {
            "name" : "Pillars",
            "primitives" : [
                {
                    "attributes" : {
                        "POSITION" : 4,
                        "NORMAL" : 5,
                        "TEXCOORD_0" : 6
                    },
                    "indices" : 7,
                    "material" : 1
                }
            ]
        },
        {
            "name" : "Bradley Hall",
            "primitives" : [
                {
                    "attributes" : {
                        "POSITION" : 8,
                        "NORMAL" : 9,
                        "TEXCOORD_0" : 10
                    },
                    "indices" : 11,
                    "material" : 2
                },
                {
                    "attributes" : {
                        "POSITION" : 12,
                        "NORMAL" : 13,
                        "TEXCOORD_0" : 14
                    },
                    "indices" : 15,
                    "material" : 3
                }
            ]
        },
        {
            "name" : "Cylinder",
            "primitives" : [
                {
                    "attributes" : {
                        "POSITION" : 16,
                        "NORMAL" : 17,
                        "TEXCOORD_0" : 18
                    },
                    "indices" : 19
                }
            ]
        },
        {
            "name" : "Cube.001",
            "primitives" : [
                {
                    "attributes" : {
                        "POSITION" : 20,
                        "NORMAL" : 21,
                        "TEXCOORD_0" : 22
                    },
                    "indices" : 23,
                    "material" : 4
                }
            ]
        },
        {
            "name" : "Cube.002",
            "primitives" : [
                {
                    "attributes" : {
                        "POSITION" : 24,
                        "NORMAL" : 25,
                        "TEXCOORD_0" : 26
                    },
                    "indices" : 27,
                    "material" : 5
                }
            ]
        }
    ],
    "textures" : [
        {
            "source" : 0
        },
        {
            "source" : 1
        },
        {
            "source" : 0
        },
        {
            "source" : 0
        }
    ],
    "images" : [
        {
            "bufferView" : 12,
            "mimeType" : "image/png",
            "name" : "Image_0"
        },
        {
            "bufferView" : 17,
            "mimeType" : "image/png",
            "name" : "Image_1"
        }
    ],
    "accessors" : [
        {
            "bufferView" : 0,
            "componentType" : 5126,
            "count" : 24,
            "max" : [
                1,
                1,
                1
            ],
            "min" : [
                -1,
                -1,
                -1
            ],
            "type" : "VEC3"
        },
        {
            "bufferView" : 1,
            "componentType" : 5126,
            "count" : 24,
            "type" : "VEC3"
        },
        {
            "bufferView" : 2,
            "componentType" : 5126,
            "count" : 24,
            "type" : "VEC2"
        },
        {
            "bufferView" : 3,
            "componentType" : 5123,
            "count" : 36,
            "type" : "SCALAR"
        },
        {
            "bufferView" : 4,
            "componentType" : 5126,
            "count" : 868,
            "max" : [
                8.54131031036377,
                7.443019866943359,
                13.610160827636719
            ],
            "min" : [
                1.1890451908111572,
                -11.347676277160645,
                -11.692852020263672
            ],
            "type" : "VEC3"
        },
        {
            "bufferView" : 5,
            "componentType" : 5126,
            "count" : 868,
            "type" : "VEC3"
        },
        {
            "bufferView" : 6,
            "componentType" : 5126,
            "count" : 868,
            "type" : "VEC2"
        },
        {
            "bufferView" : 7,
            "componentType" : 5123,
            "count" : 984,
            "type" : "SCALAR"
        },
        {
            "bufferView" : 8,
            "componentType" : 5126,
            "count" : 12795,
            "max" : [
                40.9375,
                38.5,
                23.47187042236328
            ],
            "min" : [
                -39.70745849609375,
                -39,
                -7.399998188018799
            ],
            "type" : "VEC3"
        },
        {
            "bufferView" : 9,
            "componentType" : 5126,
            "count" : 12795,
            "type" : "VEC3"
        },
        {
            "bufferView" : 10,
            "componentType" : 5126,
            "count" : 12795,
            "type" : "VEC2"
        },
        {
            "bufferView" : 11,
            "componentType" : 5123,
            "count" : 13794,
            "type" : "SCALAR"
        },
        {
            "bufferView" : 13,
            "componentType" : 5126,
            "count" : 84,
            "max" : [
                36.396820068359375,
                -1.1705139875411987,
                9.091465950012207
            ],
            "min" : [
                36.313323974609375,
                -1.8521345853805542,
                8.334671974182129
            ],
            "type" : "VEC3"
        },
        {
            "bufferView" : 14,
            "componentType" : 5126,
            "count" : 84,
            "type" : "VEC3"
        },
        {
            "bufferView" : 15,
            "componentType" : 5126,
            "count" : 84,
            "type" : "VEC2"
        },
        {
            "bufferView" : 16,
            "componentType" : 5123,
            "count" : 96,
            "type" : "SCALAR"
        },
        {
            "bufferView" : 18,
            "componentType" : 5126,
            "count" : 356,
            "max" : [
                14.892959594726562,
                3.0700016021728516,
                14.605262756347656
            ],
            "min" : [
                6.197552680969238,
                -2.885875701904297,
                -9.368379592895508
            ],
            "type" : "VEC3"
        },
        {
            "bufferView" : 19,
            "componentType" : 5126,
            "count" : 356,
            "type" : "VEC3"
        },
        {
            "bufferView" : 20,
            "componentType" : 5126,
            "count" : 356,
            "type" : "VEC2"
        },
        {
            "bufferView" : 21,
            "componentType" : 5123,
            "count" : 384,
            "type" : "SCALAR"
        },
        {
            "bufferView" : 22,
            "componentType" : 5126,
            "count" : 550,
            "max" : [
                -10.475279808044434,
                7.631980895996094,
                -21.879819869995117
            ],
            "min" : [
                -17.145095825195312,
                -12.703446388244629,
                -39.16112518310547
            ],
            "type" : "VEC3"
        },
        {
            "bufferView" : 23,
            "componentType" : 5126,
            "count" : 550,
            "type" : "VEC3"
        },
        {
            "bufferView" : 24,
            "componentType" : 5126,
            "count" : 550,
            "type" : "VEC2"
        },
        {
            "bufferView" : 25,
            "componentType" : 5123,
            "count" : 552,
            "type" : "SCALAR"
        },
        {
            "bufferView" : 26,
            "componentType" : 5126,
            "count" : 484,
            "max" : [
                4.478512287139893,
                1,
                5.88179874420166
            ],
            "min" : [
                -1.0255565643310547,
                -0.80593341588974,
                -7.734918594360352
            ],
            "type" : "VEC3"
        },
        {
            "bufferView" : 27,
            "componentType" : 5126,
            "count" : 484,
            "type" : "VEC3"
        },
        {
            "bufferView" : 28,
            "componentType" : 5126,
            "count" : 484,
            "type" : "VEC2"
        },
        {
            "bufferView" : 29,
            "componentType" : 5123,
            "count" : 516,
            "type" : "SCALAR"
        }
    ],
    "bufferViews" : [
        {
            "buffer" : 0,
            "byteLength" : 288,
            "byteOffset" : 0
        },
        {
            "buffer" : 0,
            "byteLength" : 288,
            "byteOffset" : 288
        },
        {
            "buffer" : 0,
            "byteLength" : 192,
            "byteOffset" : 576
        },
        {
            "buffer" : 0,
            "byteLength" : 72,
            "byteOffset" : 768
        },
        {
            "buffer" : 0,
            "byteLength" : 10416,
            "byteOffset" : 840
        },
        {
            "buffer" : 0,
            "byteLength" : 10416,
            "byteOffset" : 11256
        },
        {
            "buffer" : 0,
            "byteLength" : 6944,
            "byteOffset" : 21672
        },
        {
            "buffer" : 0,
            "byteLength" : 1968,
            "byteOffset" : 28616
        },
        {
            "buffer" : 0,
            "byteLength" : 153540,
            "byteOffset" : 30584
        },
        {
            "buffer" : 0,
            "byteLength" : 153540,
            "byteOffset" : 184124
        },
        {
            "buffer" : 0,
            "byteLength" : 102360,
            "byteOffset" : 337664
        },
        {
            "buffer" : 0,
            "byteLength" : 27588,
            "byteOffset" : 440024
        },
        {
            "buffer" : 0,
            "byteLength" : 1191430,
            "byteOffset" : 467612
        },
        {
            "buffer" : 0,
            "byteLength" : 1008,
            "byteOffset" : 1659044
        },
        {
            "buffer" : 0,
            "byteLength" : 1008,
            "byteOffset" : 1660052
        },
        {
            "buffer" : 0,
            "byteLength" : 672,
            "byteOffset" : 1661060
        },
        {
            "buffer" : 0,
            "byteLength" : 192,
            "byteOffset" : 1661732
        },
        {
            "buffer" : 0,
            "byteLength" : 343731,
            "byteOffset" : 1661924
        },
        {
            "buffer" : 0,
            "byteLength" : 4272,
            "byteOffset" : 2005656
        },
        {
            "buffer" : 0,
            "byteLength" : 4272,
            "byteOffset" : 2009928
        },
        {
            "buffer" : 0,
            "byteLength" : 2848,
            "byteOffset" : 2014200
        },
        {
            "buffer" : 0,
            "byteLength" : 768,
            "byteOffset" : 2017048
        },
        {
            "buffer" : 0,
            "byteLength" : 6600,
            "byteOffset" : 2017816
        },
        {
            "buffer" : 0,
            "byteLength" : 6600,
            "byteOffset" : 2024416
        },
        {
            "buffer" : 0,
            "byteLength" : 4400,
            "byteOffset" : 2031016
        },
        {
            "buffer" : 0,
            "byteLength" : 1104,
            "byteOffset" : 2035416
        },
        {
            "buffer" : 0,
            "byteLength" : 5808,
            "byteOffset" : 2036520
        },
        {
            "buffer" : 0,
            "byteLength" : 5808,
            "byteOffset" : 2042328
        },
        {
            "buffer" : 0,
            "byteLength" : 3872,
            "byteOffset" : 2048136
        },
        {
            "buffer" : 0,
            "byteLength" : 1032,
            "byteOffset" : 2052008
        }
    ],
    "buffers" : [
        {
            "byteLength" : 2053040,
            "uri" : "data:application/octet-stream;base64,"
        }
    ]
}
