{
    "asset" : {
        "generator" : "Khronos glTF Blender I/O v1.1.45",
        "version" : "2.0"
    },
    "scene" : 0,
    "scenes" : [
        {
            "name" : "Scene",
            "nodes" : [
                0,
                1,
                2,
                3
            ]
        }
    ],
    "nodes" : [
        {
            "name" : "Light",
            "rotation" : [
                0.16907575726509094,
                0.7558803558349609,
                -0.27217137813568115,
                0.570947527885437
            ],
            "translation" : [
                4.076245307922363,
                5.903861999511719,
                -1.0054539442062378
            ]
        },
        {
            "name" : "Camera",
            "rotation" : [
                0.483536034822464,
                0.33687159419059753,
                -0.20870360732078552,
                0.7804827094078064
            ],
            "translation" : [
                7.358891487121582,
                4.958309173583984,
                6.925790786743164
            ]
        },
        {
            "name" : "Empty"
        },
        {
            "mesh" : 0,
            "name" : "Plane",
            "translation" : [
                -1.4433022737503052,
                -0.007072825916111469,
                0.12906377017498016
            ]
        }
    ],
    "meshes" : [
        {
            "name" : "Plane",
            "primitives" : [
                {
                    "attributes" : {
                        "POSITION" : 0,
                        "NORMAL" : 1,
                        "TEXCOORD_0" : 2
                    },
                    "indices" : 3
                }
            ]
        }
    ],
    "accessors" : [
        {
            "bufferView" : 0,
            "componentType" : 5126,
            "count" : 17940,
            "max" : [
                3.9372060298919678,
                0.26242178678512573,
                1.219778299331665
            ],
            "min" : [
                -1.0348433256149292,
                0,
                -1.4926565885543823
            ],
            "type" : "VEC3"
        },
        {
            "bufferView" : 1,
            "componentType" : 5126,
            "count" : 17940,
            "type" : "VEC3"
        },
        {
            "bufferView" : 2,
            "componentType" : 5126,
            "count" : 17940,
            "type" : "VEC2"
        },
        {
            "bufferView" : 3,
            "componentType" : 5123,
            "count" : 38082,
            "type" : "SCALAR"
        }
    ],
    "bufferViews" : [
        {
            "buffer" : 0,
            "byteLength" : 215280,
            "byteOffset" : 0
        },
        {
            "buffer" : 0,
            "byteLength" : 215280,
            "byteOffset" : 215280
        },
        {
            "buffer" : 0,
            "byteLength" : 143520,
            "byteOffset" : 430560
        },
        {
            "buffer" : 0,
            "byteLength" : 76164,
            "byteOffset" : 574080
        }
    ],
    "buffers" : [
        {
            "byteLength" : 650244,
            "uri" : "data:application/octet-stream;base64,"
        }
    ]
}
