{
    "asset" : {
        "generator" : "Khronos glTF Blender I/O v1.0.5",
        "version" : "2.0"
    },
    "scene" : 0,
    "scenes" : [
        {
            "name" : "Scene",
            "nodes" : [
                0,
                1,
                2,
                3,
                4
            ]
        }
    ],
    "nodes" : [
        {
            "name" : "Light",
            "rotation" : [
                0.18592175841331482,
                0.6948761343955994,
                -0.36478814482688904,
                0.5911936163902283
            ],
            "translation" : [
                182.11907958984375,
                410.97943115234375,
                0.9692456126213074
            ]
        },
        {
            "name" : "Camera",
            "rotation" : [
                0.483536034822464,
                0.33687159419059753,
                -0.20870360732078552,
                0.7804827094078064
            ],
            "translation" : [
                7.358891487121582,
                4.958309173583984,
                6.925790786743164
            ]
        },
        {
            "name" : "Light.001",
            "rotation" : [
                0.5232754945755005,
                0.34203392267227173,
                -0.7269423604011536,
                0.284166157245636
            ],
            "translation" : [
                41.07958984375,
                13.4669771194458,
                0.9692463278770447
            ]
        },
        {
            "name" : "Camera.001",
            "rotation" : [
                0.8937963247299194,
                0.09062855690717697,
                -0.3857799172401428,
                0.20997287333011627
            ],
            "translation" : [
                7.358891487121582,
                4.958308696746826,
                6.925792217254639
            ]
        },
        {
            "mesh" : 0,
            "name" : "Bradley_Hall",
            "rotation" : [
                1,
                0,
                0,
                -1.3435885648505064e-07
            ],
            "translation" : [
                0.5998972654342651,
                7.279459476470947,
                -0.6488359570503235
            ]
        }
    ],
    "materials" : [
        {
            "doubleSided" : true,
            "name" : "CityEngineMaterial",
            "pbrMetallicRoughness" : {
                "baseColorTexture" : {
                    "index" : 0,
                    "texCoord" : 0
                },
                "metallicFactor" : 0,
                "roughnessFactor" : 0.5
            }
        },
        {
            "doubleSided" : true,
            "name" : "Material.003",
            "pbrMetallicRoughness" : {
                "baseColorTexture" : {
                    "index" : 1,
                    "texCoord" : 0
                },
                "metallicFactor" : 0,
                "roughnessFactor" : 0.4000000059604645
            }
        },
        {
            "doubleSided" : true,
            "name" : "Material.004",
            "pbrMetallicRoughness" : {
                "baseColorFactor" : [
                    0,
                    0.4949280619621277,
                    0.8000000715255737,
                    1
                ],
                "metallicFactor" : 1,
                "roughnessFactor" : 0
            }
        }
    ],
    "meshes" : [
        {
            "name" : "Bradley_Hall",
            "primitives" : [
                {
                    "attributes" : {
                        "POSITION" : 0,
                        "NORMAL" : 1,
                        "TEXCOORD_0" : 2
                    },
                    "indices" : 3,
                    "material" : 0
                },
                {
                    "attributes" : {
                        "POSITION" : 4,
                        "NORMAL" : 5,
                        "TEXCOORD_0" : 6
                    },
                    "indices" : 7,
                    "material" : 1
                },
                {
                    "attributes" : {
                        "POSITION" : 8,
                        "NORMAL" : 9,
                        "TEXCOORD_0" : 10
                    },
                    "indices" : 11,
                    "material" : 2
                }
            ]
        }
    ],
    "textures" : [
        {
            "source" : 0
        },
        {
            "source" : 1
        }
    ],
    "images" : [
        {
            "bufferView" : 4,
            "mimeType" : "image/png",
            "name" : "Bradley_Hall_Exterior_1.tif"
        },
        {
            "bufferView" : 9,
            "mimeType" : "image/jpeg",
            "name" : "door"
        }
    ],
    "accessors" : [
        {
            "bufferView" : 0,
            "componentType" : 5126,
            "count" : 6838,
            "max" : [
                40.9375,
                7.64801549911499,
                38.5
            ],
            "min" : [
                -42.63041305541992,
                -20.7806396484375,
                -39
            ],
            "type" : "VEC3"
        },
        {
            "bufferView" : 1,
            "componentType" : 5126,
            "count" : 6838,
            "type" : "VEC3"
        },
        {
            "bufferView" : 2,
            "componentType" : 5126,
            "count" : 6838,
            "type" : "VEC2"
        },
        {
            "bufferView" : 3,
            "componentType" : 5123,
            "count" : 8229,
            "type" : "SCALAR"
        },
        {
            "bufferView" : 5,
            "componentType" : 5126,
            "count" : 30,
            "max" : [
                36.447914123535156,
                7.399997234344482,
                0.6666667461395264
            ],
            "min" : [
                36.36458206176758,
                3.6999971866607666,
                -2.1666665077209473
            ],
            "type" : "VEC3"
        },
        {
            "bufferView" : 6,
            "componentType" : 5126,
            "count" : 30,
            "type" : "VEC3"
        },
        {
            "bufferView" : 7,
            "componentType" : 5126,
            "count" : 30,
            "type" : "VEC2"
        },
        {
            "bufferView" : 8,
            "componentType" : 5123,
            "count" : 84,
            "type" : "SCALAR"
        },
        {
            "bufferView" : 10,
            "componentType" : 5126,
            "count" : 204,
            "max" : [
                40.9095344543457,
                2.2224793434143066,
                36.222904205322266
            ],
            "min" : [
                33.40776824951172,
                -9.564603805541992,
                -37.74726104736328
            ],
            "type" : "VEC3"
        },
        {
            "bufferView" : 11,
            "componentType" : 5126,
            "count" : 204,
            "type" : "VEC3"
        },
        {
            "bufferView" : 12,
            "componentType" : 5126,
            "count" : 204,
            "type" : "VEC2"
        },
        {
            "bufferView" : 13,
            "componentType" : 5123,
            "count" : 306,
            "type" : "SCALAR"
        }
    ],
    "bufferViews" : [
        {
            "buffer" : 0,
            "byteLength" : 82056,
            "byteOffset" : 0
        },
        {
            "buffer" : 0,
            "byteLength" : 82056,
            "byteOffset" : 82056
        },
        {
            "buffer" : 0,
            "byteLength" : 54704,
            "byteOffset" : 164112
        },
        {
            "buffer" : 0,
            "byteLength" : 16458,
            "byteOffset" : 218816
        },
        {
            "buffer" : 0,
            "byteLength" : 1191430,
            "byteOffset" : 235276
        },
        {
            "buffer" : 0,
            "byteLength" : 360,
            "byteOffset" : 1426708
        },
        {
            "buffer" : 0,
            "byteLength" : 360,
            "byteOffset" : 1427068
        },
        {
            "buffer" : 0,
            "byteLength" : 240,
            "byteOffset" : 1427428
        },
        {
            "buffer" : 0,
            "byteLength" : 168,
            "byteOffset" : 1427668
        },
        {
            "buffer" : 0,
            "byteLength" : 494155,
            "byteOffset" : 1427836
        },
        {
            "buffer" : 0,
            "byteLength" : 2448,
            "byteOffset" : 1921992
        },
        {
            "buffer" : 0,
            "byteLength" : 2448,
            "byteOffset" : 1924440
        },
        {
            "buffer" : 0,
            "byteLength" : 1632,
            "byteOffset" : 1926888
        },
        {
            "buffer" : 0,
            "byteLength" : 612,
            "byteOffset" : 1928520
        }
    ],
    "buffers" : [
        {
            "byteLength" : 1929132,
            "uri" : "data:application/octet-stream;base64,"
        }
    ]
}
