{
    "asset" : {
        "generator" : "Khronos glTF Blender I/O v1.1.45",
        "version" : "2.0"
    },
    "scene" : 0,
    "scenes" : [
        {
            "name" : "Scene",
            "nodes" : [
                0
            ]
        }
    ],
    "nodes" : [
        {
            "mesh" : 0,
            "name" : "Plane"
        }
    ],
    "meshes" : [
        {
            "name" : "Plane",
            "primitives" : [
                {
                    "attributes" : {
                        "POSITION" : 0,
                        "NORMAL" : 1,
                        "TEXCOORD_0" : 2
                    },
                    "indices" : 3
                }
            ]
        }
    ],
    "accessors" : [
        {
            "bufferView" : 0,
            "componentType" : 5126,
            "count" : 40369,
            "max" : [
                15.972809791564941,
                1.0265145301818848,
                8.711991310119629
            ],
            "min" : [
                -15.89348316192627,
                -0.001519322395324707,
                -8.64704704284668
            ],
            "type" : "VEC3"
        },
        {
            "bufferView" : 1,
            "componentType" : 5126,
            "count" : 40369,
            "type" : "VEC3"
        },
        {
            "bufferView" : 2,
            "componentType" : 5126,
            "count" : 40369,
            "type" : "VEC2"
        },
        {
            "bufferView" : 3,
            "componentType" : 5123,
            "count" : 86424,
            "type" : "SCALAR"
        }
    ],
    "bufferViews" : [
        {
            "buffer" : 0,
            "byteLength" : 484428,
            "byteOffset" : 0
        },
        {
            "buffer" : 0,
            "byteLength" : 484428,
            "byteOffset" : 484428
        },
        {
            "buffer" : 0,
            "byteLength" : 322952,
            "byteOffset" : 968856
        },
        {
            "buffer" : 0,
            "byteLength" : 172848,
            "byteOffset" : 1291808
        }
    ],
    "buffers" : [
        {
            "byteLength" : 1464656,
            "uri" : "data:application/octet-stream;base64,"
        }
    ]
}
