{
    "asset" : {
        "generator" : "Khronos glTF Blender I/O v1.0.5",
        "version" : "2.0"
    },
    "scene" : 0,
    "scenes" : [
        {
            "name" : "Scene",
            "nodes" : [
                0,
                1,
                2,
                3
            ]
        }
    ],
    "nodes" : [
        {
            "name" : "Light",
            "rotation" : [
                0.16907575726509094,
                0.7558803558349609,
                -0.27217137813568115,
                0.570947527885437
            ],
            "translation" : [
                4.076245307922363,
                5.903861999511719,
                -1.0054539442062378
            ]
        },
        {
            "name" : "Camera",
            "rotation" : [
                0.483536034822464,
                0.33687159419059753,
                -0.20870360732078552,
                0.7804827094078064
            ],
            "translation" : [
                7.358891487121582,
                4.958309173583984,
                6.925790786743164
            ]
        },
        {
            "name" : "Empty",
            "rotation" : [
                0,
                0.7071067690849304,
                0,
                -0.7071067690849304
            ],
            "translation" : [
                -12.828119277954102,
                0,
                -7.634512424468994
            ]
        },
        {
            "mesh" : 0,
            "name" : "Plane",
            "scale" : [
                50,
                50,
                50
            ]
        }
    ],
    "materials" : [
        {
            "doubleSided" : true,
            "name" : "Glass",
            "pbrMetallicRoughness" : {
                "baseColorTexture" : {
                    "index" : 0,
                    "texCoord" : 0
                },
                "metallicFactor" : 0,
                "roughnessFactor" : 0.5
            }
        },
        {
            "doubleSided" : true,
            "name" : "Brick",
            "pbrMetallicRoughness" : {
                "baseColorTexture" : {
                    "index" : 1,
                    "texCoord" : 0
                },
                "metallicFactor" : 0,
                "roughnessFactor" : 0.5
            }
        },
        {
            "doubleSided" : true,
            "name" : "BrownBrick",
            "pbrMetallicRoughness" : {
                "baseColorTexture" : {
                    "index" : 2,
                    "texCoord" : 0
                },
                "metallicFactor" : 0,
                "roughnessFactor" : 0.5
            }
        },
        {
            "doubleSided" : true,
            "name" : "StackedBrick",
            "pbrMetallicRoughness" : {
                "baseColorTexture" : {
                    "index" : 3,
                    "texCoord" : 0
                },
                "metallicFactor" : 0,
                "roughnessFactor" : 0.5
            }
        }
    ],
    "meshes" : [
        {
            "name" : "Plane.002",
            "primitives" : [
                {
                    "attributes" : {
                        "POSITION" : 0,
                        "NORMAL" : 1,
                        "TEXCOORD_0" : 2
                    },
                    "indices" : 3,
                    "material" : 0
                },
                {
                    "attributes" : {
                        "POSITION" : 4,
                        "NORMAL" : 5,
                        "TEXCOORD_0" : 6
                    },
                    "indices" : 7,
                    "material" : 1
                },
                {
                    "attributes" : {
                        "POSITION" : 8,
                        "NORMAL" : 9,
                        "TEXCOORD_0" : 10
                    },
                    "indices" : 11,
                    "material" : 2
                },
                {
                    "attributes" : {
                        "POSITION" : 12,
                        "NORMAL" : 13,
                        "TEXCOORD_0" : 14
                    },
                    "indices" : 15,
                    "material" : 3
                }
            ]
        }
    ],
    "textures" : [
        {
            "source" : 0
        },
        {
            "source" : 1
        },
        {
            "source" : 2
        },
        {
            "source" : 3
        }
    ],
    "images" : [
        {
            "bufferView" : 4,
            "mimeType" : "image/jpeg",
            "name" : "glass_texture_6"
        },
        {
            "bufferView" : 9,
            "mimeType" : "image/jpeg",
            "name" : "avc49da1a7b43dfe0e2ab"
        },
        {
            "bufferView" : 14,
            "mimeType" : "image/jpeg",
            "name" : "seamless-yellow-brown-calais-brick-wall-texture-for-3d-500x500"
        },
        {
            "bufferView" : 19,
            "mimeType" : "image/jpeg",
            "name" : "BrickSmallStacked0007_1_270"
        }
    ],
    "accessors" : [
        {
            "bufferView" : 0,
            "componentType" : 5126,
            "count" : 871,
            "max" : [
                0.8669376373291016,
                0.5008681416511536,
                0.9982630014419556
            ],
            "min" : [
                -0.7113860845565796,
                0.020174607634544373,
                -0.8242660760879517
            ],
            "type" : "VEC3"
        },
        {
            "bufferView" : 1,
            "componentType" : 5126,
            "count" : 871,
            "type" : "VEC3"
        },
        {
            "bufferView" : 2,
            "componentType" : 5126,
            "count" : 871,
            "type" : "VEC2"
        },
        {
            "bufferView" : 3,
            "componentType" : 5123,
            "count" : 1521,
            "type" : "SCALAR"
        },
        {
            "bufferView" : 5,
            "componentType" : 5126,
            "count" : 1413,
            "max" : [
                0.8669376373291016,
                0.47779905796051025,
                0.9982630014419556
            ],
            "min" : [
                -0.7113860845565796,
                0.020174607634544373,
                -0.9173445701599121
            ],
            "type" : "VEC3"
        },
        {
            "bufferView" : 6,
            "componentType" : 5126,
            "count" : 1413,
            "type" : "VEC3"
        },
        {
            "bufferView" : 7,
            "componentType" : 5126,
            "count" : 1413,
            "type" : "VEC2"
        },
        {
            "bufferView" : 8,
            "componentType" : 5123,
            "count" : 2973,
            "type" : "SCALAR"
        },
        {
            "bufferView" : 10,
            "componentType" : 5126,
            "count" : 517,
            "max" : [
                0.5870275497436523,
                0.6054893136024475,
                -0.34966954588890076
            ],
            "min" : [
                0.011760488152503967,
                0.3177810311317444,
                -0.7399835586547852
            ],
            "type" : "VEC3"
        },
        {
            "bufferView" : 11,
            "componentType" : 5126,
            "count" : 517,
            "type" : "VEC3"
        },
        {
            "bufferView" : 12,
            "componentType" : 5126,
            "count" : 517,
            "type" : "VEC2"
        },
        {
            "bufferView" : 13,
            "componentType" : 5123,
            "count" : 2022,
            "type" : "SCALAR"
        },
        {
            "bufferView" : 15,
            "componentType" : 5126,
            "count" : 146,
            "max" : [
                0.8563146591186523,
                0.47779905796051025,
                0.9413309097290039
            ],
            "min" : [
                -0.698287308216095,
                0.24938920140266418,
                -0.8669813275337219
            ],
            "type" : "VEC3"
        },
        {
            "bufferView" : 16,
            "componentType" : 5126,
            "count" : 146,
            "type" : "VEC3"
        },
        {
            "bufferView" : 17,
            "componentType" : 5126,
            "count" : 146,
            "type" : "VEC2"
        },
        {
            "bufferView" : 18,
            "componentType" : 5123,
            "count" : 222,
            "type" : "SCALAR"
        }
    ],
    "bufferViews" : [
        {
            "buffer" : 0,
            "byteLength" : 10452,
            "byteOffset" : 0
        },
        {
            "buffer" : 0,
            "byteLength" : 10452,
            "byteOffset" : 10452
        },
        {
            "buffer" : 0,
            "byteLength" : 6968,
            "byteOffset" : 20904
        },
        {
            "buffer" : 0,
            "byteLength" : 3042,
            "byteOffset" : 27872
        },
        {
            "buffer" : 0,
            "byteLength" : 52764,
            "byteOffset" : 30916
        },
        {
            "buffer" : 0,
            "byteLength" : 16956,
            "byteOffset" : 83680
        },
        {
            "buffer" : 0,
            "byteLength" : 16956,
            "byteOffset" : 100636
        },
        {
            "buffer" : 0,
            "byteLength" : 11304,
            "byteOffset" : 117592
        },
        {
            "buffer" : 0,
            "byteLength" : 5946,
            "byteOffset" : 128896
        },
        {
            "buffer" : 0,
            "byteLength" : 998090,
            "byteOffset" : 134844
        },
        {
            "buffer" : 0,
            "byteLength" : 6204,
            "byteOffset" : 1132936
        },
        {
            "buffer" : 0,
            "byteLength" : 6204,
            "byteOffset" : 1139140
        },
        {
            "buffer" : 0,
            "byteLength" : 4136,
            "byteOffset" : 1145344
        },
        {
            "buffer" : 0,
            "byteLength" : 4044,
            "byteOffset" : 1149480
        },
        {
            "buffer" : 0,
            "byteLength" : 127702,
            "byteOffset" : 1153524
        },
        {
            "buffer" : 0,
            "byteLength" : 1752,
            "byteOffset" : 1281228
        },
        {
            "buffer" : 0,
            "byteLength" : 1752,
            "byteOffset" : 1282980
        },
        {
            "buffer" : 0,
            "byteLength" : 1168,
            "byteOffset" : 1284732
        },
        {
            "buffer" : 0,
            "byteLength" : 444,
            "byteOffset" : 1285900
        },
        {
            "buffer" : 0,
            "byteLength" : 16232,
            "byteOffset" : 1286344
        }
    ],
    "buffers" : [
        {
            "byteLength" : 1302576,
            "uri" : "data:application/octet-stream;base64,"
        }
    ]
}
