{
    "asset" : {
        "generator" : "Khronos glTF Blender I/O v1.0.5",
        "version" : "2.0"
    },
    "scene" : 0,
    "scenes" : [
        {
            "name" : "Scene",
            "nodes" : [
                0,
                1,
                2,
                3,
                4
            ]
        }
    ],
    "nodes" : [
        {
            "name" : "Light",
            "rotation" : [
                0.16907575726509094,
                0.7558803558349609,
                -0.27217137813568115,
                0.570947527885437
            ],
            "translation" : [
                4.076245307922363,
                5.903861999511719,
                -1.0054539442062378
            ]
        },
        {
            "name" : "Camera",
            "rotation" : [
                0.483536034822464,
                0.33687159419059753,
                -0.20870360732078552,
                0.7804827094078064
            ],
            "translation" : [
                7.358891487121582,
                4.958309173583984,
                6.925790786743164
            ]
        },
        {
            "name" : "Light.001",
            "rotation" : [
                0.5232754945755005,
                0.34203392267227173,
                -0.7269423604011536,
                0.284166157245636
            ],
            "translation" : [
                4.076245307922363,
                5.903862476348877,
                -1.0054532289505005
            ]
        },
        {
            "name" : "Camera.001",
            "rotation" : [
                0.8937963247299194,
                0.09062855690717697,
                -0.3857799172401428,
                0.20997287333011627
            ],
            "translation" : [
                7.358891487121582,
                4.958308696746826,
                6.925792217254639
            ]
        },
        {
            "mesh" : 0,
            "name" : "DavisLibrary_0",
            "rotation" : [
                1,
                0,
                0,
                -1.3435885648505064e-07
            ],
            "translation" : [
                0,
                3.5852468013763428,
                0
            ]
        }
    ],
    "materials" : [
        {
            "doubleSided" : true,
            "name" : "CityEngineMaterial",
            "pbrMetallicRoughness" : {
                "baseColorTexture" : {
                    "index" : 0,
                    "texCoord" : 0
                },
                "metallicFactor" : 0,
                "roughnessFactor" : 0.5
            }
        },
        {
            "doubleSided" : true,
            "name" : "Material.001",
            "pbrMetallicRoughness" : {
                "baseColorTexture" : {
                    "index" : 1,
                    "texCoord" : 0
                },
                "metallicFactor" : 0,
                "roughnessFactor" : 0.5
            }
        },
        {
            "doubleSided" : true,
            "name" : "Material",
            "pbrMetallicRoughness" : {
                "baseColorTexture" : {
                    "index" : 2,
                    "texCoord" : 0
                },
                "metallicFactor" : 0,
                "roughnessFactor" : 0.5
            }
        },
        {
            "doubleSided" : true,
            "name" : "Material.003",
            "pbrMetallicRoughness" : {
                "baseColorTexture" : {
                    "index" : 3,
                    "texCoord" : 0
                },
                "metallicFactor" : 0,
                "roughnessFactor" : 0.5
            }
        }
    ],
    "meshes" : [
        {
            "name" : "DavisLibrary_0",
            "primitives" : [
                {
                    "attributes" : {
                        "POSITION" : 0,
                        "NORMAL" : 1,
                        "TEXCOORD_0" : 2
                    },
                    "indices" : 3,
                    "material" : 0
                },
                {
                    "attributes" : {
                        "POSITION" : 4,
                        "NORMAL" : 5,
                        "TEXCOORD_0" : 6
                    },
                    "indices" : 7,
                    "material" : 1
                },
                {
                    "attributes" : {
                        "POSITION" : 8,
                        "NORMAL" : 9,
                        "TEXCOORD_0" : 10
                    },
                    "indices" : 11,
                    "material" : 2
                },
                {
                    "attributes" : {
                        "POSITION" : 12,
                        "NORMAL" : 13,
                        "TEXCOORD_0" : 14
                    },
                    "indices" : 15,
                    "material" : 3
                }
            ]
        }
    ],
    "textures" : [
        {
            "source" : 0
        },
        {
            "source" : 1
        },
        {
            "source" : 2
        },
        {
            "source" : 3
        }
    ],
    "images" : [
        {
            "bufferView" : 4,
            "mimeType" : "image/jpeg",
            "name" : "brick_texture"
        },
        {
            "bufferView" : 9,
            "mimeType" : "image/jpeg",
            "name" : "Library_roof_tile"
        },
        {
            "bufferView" : 14,
            "mimeType" : "image/png",
            "name" : "glass_texture_6"
        },
        {
            "bufferView" : 19,
            "mimeType" : "image/jpeg",
            "name" : "glass_door_2"
        }
    ],
    "accessors" : [
        {
            "bufferView" : 0,
            "componentType" : 5126,
            "count" : 1347,
            "max" : [
                24.34375,
                3.9543912410736084,
                25
            ],
            "min" : [
                -49.0625,
                -20.211973190307617,
                -28.904020309448242
            ],
            "type" : "VEC3"
        },
        {
            "bufferView" : 1,
            "componentType" : 5126,
            "count" : 1347,
            "type" : "VEC3"
        },
        {
            "bufferView" : 2,
            "componentType" : 5126,
            "count" : 1347,
            "type" : "VEC2"
        },
        {
            "bufferView" : 3,
            "componentType" : 5123,
            "count" : 2154,
            "type" : "SCALAR"
        },
        {
            "bufferView" : 5,
            "componentType" : 5126,
            "count" : 23,
            "max" : [
                18.34375,
                -17.07903289794922,
                25
            ],
            "min" : [
                -11.228090286254883,
                -20.211973190307617,
                -15
            ],
            "type" : "VEC3"
        },
        {
            "bufferView" : 6,
            "componentType" : 5126,
            "count" : 23,
            "type" : "VEC3"
        },
        {
            "bufferView" : 7,
            "componentType" : 5126,
            "count" : 23,
            "type" : "VEC2"
        },
        {
            "bufferView" : 8,
            "componentType" : 5123,
            "count" : 45,
            "type" : "SCALAR"
        },
        {
            "bufferView" : 10,
            "componentType" : 5126,
            "count" : 314,
            "max" : [
                24.34375,
                3.6999995708465576,
                24.96295166015625
            ],
            "min" : [
                -9.709368705749512,
                -17.088998794555664,
                5.944443702697754
            ],
            "type" : "VEC3"
        },
        {
            "bufferView" : 11,
            "componentType" : 5126,
            "count" : 314,
            "type" : "VEC3"
        },
        {
            "bufferView" : 12,
            "componentType" : 5126,
            "count" : 314,
            "type" : "VEC2"
        },
        {
            "bufferView" : 13,
            "componentType" : 5123,
            "count" : 576,
            "type" : "SCALAR"
        },
        {
            "bufferView" : 15,
            "componentType" : 5126,
            "count" : 12,
            "max" : [
                8.9375,
                3.6999990940093994,
                19.738418579101562
            ],
            "min" : [
                -1.0625,
                -0.08678066730499268,
                19.381275177001953
            ],
            "type" : "VEC3"
        },
        {
            "bufferView" : 16,
            "componentType" : 5126,
            "count" : 12,
            "type" : "VEC3"
        },
        {
            "bufferView" : 17,
            "componentType" : 5126,
            "count" : 12,
            "type" : "VEC2"
        },
        {
            "bufferView" : 18,
            "componentType" : 5123,
            "count" : 24,
            "type" : "SCALAR"
        }
    ],
    "bufferViews" : [
        {
            "buffer" : 0,
            "byteLength" : 16164,
            "byteOffset" : 0
        },
        {
            "buffer" : 0,
            "byteLength" : 16164,
            "byteOffset" : 16164
        },
        {
            "buffer" : 0,
            "byteLength" : 10776,
            "byteOffset" : 32328
        },
        {
            "buffer" : 0,
            "byteLength" : 4308,
            "byteOffset" : 43104
        },
        {
            "buffer" : 0,
            "byteLength" : 340884,
            "byteOffset" : 47412
        },
        {
            "buffer" : 0,
            "byteLength" : 276,
            "byteOffset" : 388296
        },
        {
            "buffer" : 0,
            "byteLength" : 276,
            "byteOffset" : 388572
        },
        {
            "buffer" : 0,
            "byteLength" : 184,
            "byteOffset" : 388848
        },
        {
            "buffer" : 0,
            "byteLength" : 90,
            "byteOffset" : 389032
        },
        {
            "buffer" : 0,
            "byteLength" : 25849,
            "byteOffset" : 389124
        },
        {
            "buffer" : 0,
            "byteLength" : 3768,
            "byteOffset" : 414976
        },
        {
            "buffer" : 0,
            "byteLength" : 3768,
            "byteOffset" : 418744
        },
        {
            "buffer" : 0,
            "byteLength" : 2512,
            "byteOffset" : 422512
        },
        {
            "buffer" : 0,
            "byteLength" : 1152,
            "byteOffset" : 425024
        },
        {
            "buffer" : 0,
            "byteLength" : 425528,
            "byteOffset" : 426176
        },
        {
            "buffer" : 0,
            "byteLength" : 144,
            "byteOffset" : 851704
        },
        {
            "buffer" : 0,
            "byteLength" : 144,
            "byteOffset" : 851848
        },
        {
            "buffer" : 0,
            "byteLength" : 96,
            "byteOffset" : 851992
        },
        {
            "buffer" : 0,
            "byteLength" : 48,
            "byteOffset" : 852088
        },
        {
            "buffer" : 0,
            "byteLength" : 6325,
            "byteOffset" : 852136
        }
    ],
    "buffers" : [
        {
            "byteLength" : 858464,
            "uri" : "data:application/octet-stream;base64,"
        }
    ]
}
