{
    "asset" : {
        "generator" : "Khronos glTF Blender I/O v1.0.5",
        "version" : "2.0"
    },
    "scene" : 0,
    "scenes" : [
        {
            "name" : "Scene",
            "nodes" : [
                0
            ]
        }
    ],
    "nodes" : [
        {
            "mesh" : 0,
            "name" : "Plane",
            "rotation" : [
                0.7071068286895752,
                0,
                0,
                0.7071067094802856
            ],
            "scale" : [
                200,
                200.00003051757812,
                1
            ]
        }
    ],
    "meshes" : [
        {
            "name" : "Plane.001",
            "primitives" : [
                {
                    "attributes" : {
                        "POSITION" : 0,
                        "NORMAL" : 1,
                        "TEXCOORD_0" : 2
                    },
                    "indices" : 3
                }
            ]
        }
    ],
    "accessors" : [
        {
            "bufferView" : 0,
            "componentType" : 5126,
            "count" : 569,
            "max" : [
                1,
                1,
                0.40766239166259766
            ],
            "min" : [
                -1,
                -1,
                -0.5004912614822388
            ],
            "type" : "VEC3"
        },
        {
            "bufferView" : 1,
            "componentType" : 5126,
            "count" : 569,
            "type" : "VEC3"
        },
        {
            "bufferView" : 2,
            "componentType" : 5126,
            "count" : 569,
            "type" : "VEC2"
        },
        {
            "bufferView" : 3,
            "componentType" : 5123,
            "count" : 675,
            "type" : "SCALAR"
        }
    ],
    "bufferViews" : [
        {
            "buffer" : 0,
            "byteLength" : 6828,
            "byteOffset" : 0
        },
        {
            "buffer" : 0,
            "byteLength" : 6828,
            "byteOffset" : 6828
        },
        {
            "buffer" : 0,
            "byteLength" : 4552,
            "byteOffset" : 13656
        },
        {
            "buffer" : 0,
            "byteLength" : 1350,
            "byteOffset" : 18208
        }
    ],
    "buffers" : [
        {
            "byteLength" : 19560,
            "uri" : "data:application/octet-stream;base64,"
        }
    ]
}
