{
    "asset" : {
        "generator" : "Khronos glTF Blender I/O v1.0.5",
        "version" : "2.0"
    },
    "scene" : 0,
    "scenes" : [
        {
            "name" : "Scene",
            "nodes" : [
                0,
                1,
                2,
                3,
                4,
                5
            ]
        }
    ],
    "nodes" : [
        {
            "name" : "Light",
            "rotation" : [
                0.16907575726509094,
                0.7558803558349609,
                -0.27217137813568115,
                0.570947527885437
            ],
            "translation" : [
                4.076245307922363,
                5.903861999511719,
                -1.0054539442062378
            ]
        },
        {
            "name" : "Camera",
            "rotation" : [
                0.483536034822464,
                0.33687159419059753,
                -0.20870360732078552,
                0.7804827094078064
            ],
            "translation" : [
                7.358891487121582,
                4.958309173583984,
                6.925790786743164
            ]
        },
        {
            "name" : "Light.001",
            "rotation" : [
                0.5232754945755005,
                0.34203392267227173,
                -0.7269423604011536,
                0.284166157245636
            ],
            "translation" : [
                4.076245307922363,
                5.903862476348877,
                -1.0054532289505005
            ]
        },
        {
            "name" : "Camera.001",
            "rotation" : [
                0.8937963247299194,
                0.09062855690717697,
                -0.3857799172401428,
                0.20997287333011627
            ],
            "translation" : [
                7.358891487121582,
                4.958308696746826,
                6.925792217254639
            ]
        },
        {
            "name" : "Empty",
            "rotation" : [
                0.5,
                -0.5000000596046448,
                0.5,
                0.4999999403953552
            ],
            "translation" : [
                -12.828119277954102,
                0,
                -7.6345133781433105
            ]
        },
        {
            "mesh" : 0,
            "name" : "Plane",
            "rotation" : [
                0.7071068286895752,
                0,
                0,
                0.7071067690849304
            ],
            "scale" : [
                30,
                30.000003814697266,
                30.000003814697266
            ],
            "translation" : [
                -6.167434215545654,
                0,
                8.89461612701416
            ]
        }
    ],
    "materials" : [
        {
            "doubleSided" : true,
            "name" : "Material.001",
            "pbrMetallicRoughness" : {
                "baseColorTexture" : {
                    "index" : 0,
                    "texCoord" : 0
                },
                "metallicFactor" : 0,
                "roughnessFactor" : 0.5
            }
        },
        {
            "doubleSided" : true,
            "name" : "Material.002",
            "pbrMetallicRoughness" : {
                "baseColorTexture" : {
                    "index" : 1,
                    "texCoord" : 0
                },
                "metallicFactor" : 0,
                "roughnessFactor" : 0.5
            }
        },
        {
            "doubleSided" : true,
            "name" : "Material.003",
            "pbrMetallicRoughness" : {
                "baseColorTexture" : {
                    "index" : 2,
                    "texCoord" : 0
                },
                "metallicFactor" : 0,
                "roughnessFactor" : 0.5
            }
        },
        {
            "doubleSided" : true,
            "name" : "Material.004",
            "pbrMetallicRoughness" : {
                "baseColorTexture" : {
                    "index" : 3,
                    "texCoord" : 0
                },
                "metallicFactor" : 0,
                "roughnessFactor" : 0.5
            }
        },
        {
            "doubleSided" : true,
            "name" : "Material.005",
            "pbrMetallicRoughness" : {
                "baseColorTexture" : {
                    "index" : 4,
                    "texCoord" : 0
                },
                "metallicFactor" : 0,
                "roughnessFactor" : 0.5
            }
        }
    ],
    "meshes" : [
        {
            "name" : "Plane.003",
            "primitives" : [
                {
                    "attributes" : {
                        "POSITION" : 0,
                        "NORMAL" : 1,
                        "TEXCOORD_0" : 2
                    },
                    "indices" : 3,
                    "material" : 0
                },
                {
                    "attributes" : {
                        "POSITION" : 4,
                        "NORMAL" : 5,
                        "TEXCOORD_0" : 6
                    },
                    "indices" : 7,
                    "material" : 1
                },
                {
                    "attributes" : {
                        "POSITION" : 8,
                        "NORMAL" : 9,
                        "TEXCOORD_0" : 10
                    },
                    "indices" : 11,
                    "material" : 2
                },
                {
                    "attributes" : {
                        "POSITION" : 12,
                        "NORMAL" : 13,
                        "TEXCOORD_0" : 14
                    },
                    "indices" : 15,
                    "material" : 3
                },
                {
                    "attributes" : {
                        "POSITION" : 16,
                        "NORMAL" : 17,
                        "TEXCOORD_0" : 18
                    },
                    "indices" : 19,
                    "material" : 4
                }
            ]
        }
    ],
    "textures" : [
        {
            "source" : 0
        },
        {
            "source" : 1
        },
        {
            "source" : 2
        },
        {
            "source" : 3
        },
        {
            "source" : 4
        }
    ],
    "images" : [
        {
            "bufferView" : 4,
            "mimeType" : "image/png",
            "name" : "glass_texture_6"
        },
        {
            "bufferView" : 9,
            "mimeType" : "image/jpeg",
            "name" : "olin_brick_texture"
        },
        {
            "bufferView" : 14,
            "mimeType" : "image/png",
            "name" : "olin_silver_board"
        },
        {
            "bufferView" : 19,
            "mimeType" : "image/jpeg",
            "name" : "glass_door_2"
        },
        {
            "bufferView" : 24,
            "mimeType" : "image/jpeg",
            "name" : "119244752-light-brown-brick-wall-abstract-background-texture-of-bricks-vector-illustration"
        }
    ],
    "accessors" : [
        {
            "bufferView" : 0,
            "componentType" : 5126,
            "count" : 525,
            "max" : [
                0.8467929363250732,
                1.0153007507324219,
                0.22753538191318512
            ],
            "min" : [
                -1.1494367122650146,
                -0.8735849261283875,
                -0.3285379111766815
            ],
            "type" : "VEC3"
        },
        {
            "bufferView" : 1,
            "componentType" : 5126,
            "count" : 525,
            "type" : "VEC3"
        },
        {
            "bufferView" : 2,
            "componentType" : 5126,
            "count" : 525,
            "type" : "VEC2"
        },
        {
            "bufferView" : 3,
            "componentType" : 5123,
            "count" : 663,
            "type" : "SCALAR"
        },
        {
            "bufferView" : 5,
            "componentType" : 5126,
            "count" : 16,
            "max" : [
                0.7886636257171631,
                0.05297078937292099,
                0.3016214668750763
            ],
            "min" : [
                0.6193953156471252,
                -0.47928768396377563,
                0.2268272340297699
            ],
            "type" : "VEC3"
        },
        {
            "bufferView" : 6,
            "componentType" : 5126,
            "count" : 16,
            "type" : "VEC3"
        },
        {
            "bufferView" : 7,
            "componentType" : 5126,
            "count" : 16,
            "type" : "VEC2"
        },
        {
            "bufferView" : 8,
            "componentType" : 5123,
            "count" : 24,
            "type" : "SCALAR"
        },
        {
            "bufferView" : 10,
            "componentType" : 5126,
            "count" : 3583,
            "max" : [
                0.8966319561004639,
                1.024976372718811,
                0.3085753321647644
            ],
            "min" : [
                -1.1719774007797241,
                -0.8735849261283875,
                -0.272516131401062
            ],
            "type" : "VEC3"
        },
        {
            "bufferView" : 11,
            "componentType" : 5126,
            "count" : 3583,
            "type" : "VEC3"
        },
        {
            "bufferView" : 12,
            "componentType" : 5126,
            "count" : 3583,
            "type" : "VEC2"
        },
        {
            "bufferView" : 13,
            "componentType" : 5123,
            "count" : 3789,
            "type" : "SCALAR"
        },
        {
            "bufferView" : 15,
            "componentType" : 5126,
            "count" : 38,
            "max" : [
                0.6217161417007446,
                0.05297078937292099,
                0.3016214668750763
            ],
            "min" : [
                0.2630767226219177,
                -0.8594483733177185,
                0.2268272340297699
            ],
            "type" : "VEC3"
        },
        {
            "bufferView" : 16,
            "componentType" : 5126,
            "count" : 38,
            "type" : "VEC3"
        },
        {
            "bufferView" : 17,
            "componentType" : 5126,
            "count" : 38,
            "type" : "VEC2"
        },
        {
            "bufferView" : 18,
            "componentType" : 5123,
            "count" : 66,
            "type" : "SCALAR"
        },
        {
            "bufferView" : 20,
            "componentType" : 5126,
            "count" : 468,
            "max" : [
                0.8467929363250732,
                0.9729375243186951,
                0.3016214668750763
            ],
            "min" : [
                -1.1494367122650146,
                -0.8594483733177185,
                0.03225396201014519
            ],
            "type" : "VEC3"
        },
        {
            "bufferView" : 21,
            "componentType" : 5126,
            "count" : 468,
            "type" : "VEC3"
        },
        {
            "bufferView" : 22,
            "componentType" : 5126,
            "count" : 468,
            "type" : "VEC2"
        },
        {
            "bufferView" : 23,
            "componentType" : 5123,
            "count" : 522,
            "type" : "SCALAR"
        }
    ],
    "bufferViews" : [
        {
            "buffer" : 0,
            "byteLength" : 6300,
            "byteOffset" : 0
        },
        {
            "buffer" : 0,
            "byteLength" : 6300,
            "byteOffset" : 6300
        },
        {
            "buffer" : 0,
            "byteLength" : 4200,
            "byteOffset" : 12600
        },
        {
            "buffer" : 0,
            "byteLength" : 1326,
            "byteOffset" : 16800
        },
        {
            "buffer" : 0,
            "byteLength" : 425528,
            "byteOffset" : 18128
        },
        {
            "buffer" : 0,
            "byteLength" : 192,
            "byteOffset" : 443656
        },
        {
            "buffer" : 0,
            "byteLength" : 192,
            "byteOffset" : 443848
        },
        {
            "buffer" : 0,
            "byteLength" : 128,
            "byteOffset" : 444040
        },
        {
            "buffer" : 0,
            "byteLength" : 48,
            "byteOffset" : 444168
        },
        {
            "buffer" : 0,
            "byteLength" : 132782,
            "byteOffset" : 444216
        },
        {
            "buffer" : 0,
            "byteLength" : 42996,
            "byteOffset" : 577000
        },
        {
            "buffer" : 0,
            "byteLength" : 42996,
            "byteOffset" : 619996
        },
        {
            "buffer" : 0,
            "byteLength" : 28664,
            "byteOffset" : 662992
        },
        {
            "buffer" : 0,
            "byteLength" : 7578,
            "byteOffset" : 691656
        },
        {
            "buffer" : 0,
            "byteLength" : 11779,
            "byteOffset" : 699236
        },
        {
            "buffer" : 0,
            "byteLength" : 456,
            "byteOffset" : 711016
        },
        {
            "buffer" : 0,
            "byteLength" : 456,
            "byteOffset" : 711472
        },
        {
            "buffer" : 0,
            "byteLength" : 304,
            "byteOffset" : 711928
        },
        {
            "buffer" : 0,
            "byteLength" : 132,
            "byteOffset" : 712232
        },
        {
            "buffer" : 0,
            "byteLength" : 6325,
            "byteOffset" : 712364
        },
        {
            "buffer" : 0,
            "byteLength" : 5616,
            "byteOffset" : 718692
        },
        {
            "buffer" : 0,
            "byteLength" : 5616,
            "byteOffset" : 724308
        },
        {
            "buffer" : 0,
            "byteLength" : 3744,
            "byteOffset" : 729924
        },
        {
            "buffer" : 0,
            "byteLength" : 1044,
            "byteOffset" : 733668
        },
        {
            "buffer" : 0,
            "byteLength" : 232969,
            "byteOffset" : 734712
        }
    ],
    "buffers" : [
        {
            "byteLength" : 967684,
            "uri" : "data:application/octet-stream;base64,"
        }
    ]
}
