{
    "asset" : {
        "generator" : "Khronos glTF Blender I/O v1.1.45",
        "version" : "2.0"
    },
    "scene" : 0,
    "scenes" : [
        {
            "name" : "Scene",
            "nodes" : [
                0,
                1,
                2
            ]
        }
    ],
    "nodes" : [
        {
            "name" : "Light",
            "rotation" : [
                0.16907575726509094,
                0.7558803558349609,
                -0.27217137813568115,
                0.570947527885437
            ],
            "translation" : [
                4.076245307922363,
                5.903861999511719,
                -1.0054539442062378
            ]
        },
        {
            "name" : "Camera",
            "rotation" : [
                0.483536034822464,
                0.33687159419059753,
                -0.20870360732078552,
                0.7804827094078064
            ],
            "translation" : [
                7.358891487121582,
                4.958309173583984,
                6.925790786743164
            ]
        },
        {
            "mesh" : 0,
            "name" : "Small car",
            "rotation" : [
                0.7071068286895752,
                0,
                0,
                0.7071067094802856
            ]
        }
    ],
    "materials" : [
        {
            "doubleSided" : true,
            "emissiveFactor" : [
                0,
                0,
                0
            ],
            "name" : "Material_carbodyD.png.001",
            "pbrMetallicRoughness" : {
                "baseColorTexture" : {
                    "index" : 0,
                    "texCoord" : 0
                },
                "metallicFactor" : 0,
                "roughnessFactor" : 0.6732679605484009
            }
        },
        {
            "doubleSided" : true,
            "emissiveFactor" : [
                0,
                0,
                0
            ],
            "name" : "Material.002_glass.png",
            "pbrMetallicRoughness" : {
                "baseColorTexture" : {
                    "index" : 1,
                    "texCoord" : 0
                },
                "metallicFactor" : 0,
                "roughnessFactor" : 0.6732679605484009
            }
        },
        {
            "doubleSided" : true,
            "emissiveFactor" : [
                0,
                0,
                0
            ],
            "name" : "Material.001_WheelD.png",
            "normalTexture" : {
                "index" : 2,
                "texCoord" : 0
            },
            "pbrMetallicRoughness" : {
                "baseColorTexture" : {
                    "index" : 3,
                    "texCoord" : 0
                },
                "metallicFactor" : 0,
                "roughnessFactor" : 0.6732679605484009
            }
        }
    ],
    "meshes" : [
        {
            "name" : "Small car",
            "primitives" : [
                {
                    "attributes" : {
                        "POSITION" : 0,
                        "NORMAL" : 1,
                        "TEXCOORD_0" : 2
                    },
                    "indices" : 3,
                    "material" : 0
                },
                {
                    "attributes" : {
                        "POSITION" : 4,
                        "NORMAL" : 5,
                        "TEXCOORD_0" : 6
                    },
                    "indices" : 7,
                    "material" : 1
                },
                {
                    "attributes" : {
                        "POSITION" : 8,
                        "NORMAL" : 9,
                        "TEXCOORD_0" : 10
                    },
                    "indices" : 11,
                    "material" : 2
                }
            ]
        }
    ],
    "textures" : [
        {
            "source" : 0
        },
        {
            "source" : 1
        },
        {
            "source" : 2
        },
        {
            "source" : 3
        }
    ],
    "images" : [
        {
            "bufferView" : 4,
            "mimeType" : "image/png",
            "name" : "carbodyD-carbodyD.png"
        },
        {
            "bufferView" : 9,
            "mimeType" : "image/png",
            "name" : "glass"
        },
        {
            "bufferView" : 14,
            "mimeType" : "image/png",
            "name" : "WheelN"
        },
        {
            "bufferView" : 15,
            "mimeType" : "image/png",
            "name" : "WheelD-WheelD.png"
        }
    ],
    "accessors" : [
        {
            "bufferView" : 0,
            "componentType" : 5126,
            "count" : 3249,
            "max" : [
                2.7879762649536133,
                3.7933428287506104,
                -0.62581467628479
            ],
            "min" : [
                -2.6307859420776367,
                -5.51033878326416,
                -4.0850372314453125
            ],
            "type" : "VEC3"
        },
        {
            "bufferView" : 1,
            "componentType" : 5126,
            "count" : 3249,
            "type" : "VEC3"
        },
        {
            "bufferView" : 2,
            "componentType" : 5126,
            "count" : 3249,
            "type" : "VEC2"
        },
        {
            "bufferView" : 3,
            "componentType" : 5123,
            "count" : 9198,
            "type" : "SCALAR"
        },
        {
            "bufferView" : 5,
            "componentType" : 5126,
            "count" : 100,
            "max" : [
                2.0919809341430664,
                3.5190041065216064,
                -1.7122042179107666
            ],
            "min" : [
                -1.9347901344299316,
                -5.254323959350586,
                -3.9148313999176025
            ],
            "type" : "VEC3"
        },
        {
            "bufferView" : 6,
            "componentType" : 5126,
            "count" : 100,
            "type" : "VEC3"
        },
        {
            "bufferView" : 7,
            "componentType" : 5126,
            "count" : 100,
            "type" : "VEC2"
        },
        {
            "bufferView" : 8,
            "componentType" : 5123,
            "count" : 264,
            "type" : "SCALAR"
        },
        {
            "bufferView" : 10,
            "componentType" : 5126,
            "count" : 3360,
            "max" : [
                2.408261775970459,
                2.94982647895813,
                -0.10023379325866699
            ],
            "min" : [
                -2.2510714530944824,
                -4.489432334899902,
                -1.6471264362335205
            ],
            "type" : "VEC3"
        },
        {
            "bufferView" : 11,
            "componentType" : 5126,
            "count" : 3360,
            "type" : "VEC3"
        },
        {
            "bufferView" : 12,
            "componentType" : 5126,
            "count" : 3360,
            "type" : "VEC2"
        },
        {
            "bufferView" : 13,
            "componentType" : 5123,
            "count" : 9132,
            "type" : "SCALAR"
        }
    ],
    "bufferViews" : [
        {
            "buffer" : 0,
            "byteLength" : 38988,
            "byteOffset" : 0
        },
        {
            "buffer" : 0,
            "byteLength" : 38988,
            "byteOffset" : 38988
        },
        {
            "buffer" : 0,
            "byteLength" : 25992,
            "byteOffset" : 77976
        },
        {
            "buffer" : 0,
            "byteLength" : 18396,
            "byteOffset" : 103968
        },
        {
            "buffer" : 0,
            "byteLength" : 483783,
            "byteOffset" : 122364
        },
        {
            "buffer" : 0,
            "byteLength" : 1200,
            "byteOffset" : 606148
        },
        {
            "buffer" : 0,
            "byteLength" : 1200,
            "byteOffset" : 607348
        },
        {
            "buffer" : 0,
            "byteLength" : 800,
            "byteOffset" : 608548
        },
        {
            "buffer" : 0,
            "byteLength" : 528,
            "byteOffset" : 609348
        },
        {
            "buffer" : 0,
            "byteLength" : 10784,
            "byteOffset" : 609876
        },
        {
            "buffer" : 0,
            "byteLength" : 40320,
            "byteOffset" : 620660
        },
        {
            "buffer" : 0,
            "byteLength" : 40320,
            "byteOffset" : 660980
        },
        {
            "buffer" : 0,
            "byteLength" : 26880,
            "byteOffset" : 701300
        },
        {
            "buffer" : 0,
            "byteLength" : 18264,
            "byteOffset" : 728180
        },
        {
            "buffer" : 0,
            "byteLength" : 181455,
            "byteOffset" : 746444
        },
        {
            "buffer" : 0,
            "byteLength" : 368299,
            "byteOffset" : 927900
        }
    ],
    "buffers" : [
        {
            "byteLength" : 1296200,
            "uri" : "data:application/octet-stream;base64,"
        }
    ]
}
