{
    "asset" : {
        "generator" : "Khronos glTF Blender I/O v1.1.45",
        "version" : "2.0"
    },
    "scene" : 0,
    "scenes" : [
        {
            "name" : "Scene",
            "nodes" : [
                0,
                1,
                2,
                3,
                4,
                5,
                6,
                7,
                8
            ]
        }
    ],
    "nodes" : [
        {
            "name" : "Light",
            "rotation" : [
                0.16907575726509094,
                0.7558803558349609,
                -0.27217137813568115,
                0.570947527885437
            ],
            "translation" : [
                4.076245307922363,
                5.903861999511719,
                -1.0054539442062378
            ]
        },
        {
            "name" : "Camera",
            "rotation" : [
                0.483536034822464,
                0.33687159419059753,
                -0.20870360732078552,
                0.7804827094078064
            ],
            "translation" : [
                7.358891487121582,
                4.958309173583984,
                6.925790786743164
            ]
        },
        {
            "name" : "Camera.001",
            "rotation" : [
                0.8937963247299194,
                0.09062855690717697,
                -0.3857799172401428,
                0.20997287333011627
            ],
            "translation" : [
                7.358891487121582,
                4.958308696746826,
                6.925792217254639
            ]
        },
        {
            "name" : "Camera.002",
            "rotation" : [
                -0.20997296273708344,
                0.3857799470424652,
                0.09062869846820831,
                0.8937962055206299
            ],
            "translation" : [
                7.358891487121582,
                4.95830774307251,
                6.925795078277588
            ]
        },
        {
            "name" : "Camera.003",
            "rotation" : [
                0.48353615403175354,
                0.33687183260917664,
                -0.20870345830917358,
                0.7804827094078064
            ],
            "translation" : [
                7.358891487121582,
                4.958307266235352,
                6.9257965087890625
            ]
        },
        {
            "name" : "Node",
            "rotation" : [
                0.7071068286895752,
                0,
                0,
                0.7071067094802856
            ],
            "translation" : [
                0,
                5.500001907348633,
                0
            ]
        },
        {
            "mesh" : 0,
            "name" : "Plane",
            "rotation" : [
                -0.7071065902709961,
                0,
                0,
                0.7071069478988647
            ],
            "scale" : [
                47.15583801269531,
                47.155845642089844,
                47.155845642089844
            ]
        },
        {
            "name" : "Empty.001",
            "rotation" : [
                -0.7071067094802856,
                0,
                -0.7071068286895752,
                8.964985909187817e-08
            ],
            "translation" : [
                28.162113189697266,
                4.80190574307926e-05,
                -178.69705200195312
            ]
        },
        {
            "name" : "Sun",
            "rotation" : [
                0.7071068286895752,
                0,
                0,
                0.7071067094802856
            ],
            "translation" : [
                0,
                164.4972686767578,
                2.2101663489593193e-05
            ]
        }
    ],
    "materials" : [
        {
            "doubleSided" : true,
            "emissiveFactor" : [
                0,
                0,
                0
            ],
            "name" : "Material.001",
            "pbrMetallicRoughness" : {
                "baseColorTexture" : {
                    "index" : 0,
                    "texCoord" : 0
                },
                "metallicFactor" : 0,
                "roughnessFactor" : 1
            }
        }
    ],
    "meshes" : [
        {
            "name" : "Plane",
            "primitives" : [
                {
                    "attributes" : {
                        "POSITION" : 0,
                        "NORMAL" : 1,
                        "TEXCOORD_0" : 2
                    },
                    "indices" : 3,
                    "material" : 0
                }
            ]
        }
    ],
    "textures" : [
        {
            "source" : 0
        }
    ],
    "images" : [
        {
            "bufferView" : 4,
            "mimeType" : "image/png",
            "name" : "Image_0"
        }
    ],
    "accessors" : [
        {
            "bufferView" : 0,
            "componentType" : 5126,
            "count" : 1643,
            "max" : [
                4.080281734466553,
                2.05841064453125,
                1.5899658478701895e-07
            ],
            "min" : [
                -3.384465217590332,
                -2.564704418182373,
                -6.925923656808664e-08
            ],
            "type" : "VEC3"
        },
        {
            "bufferView" : 1,
            "componentType" : 5126,
            "count" : 1643,
            "type" : "VEC3"
        },
        {
            "bufferView" : 2,
            "componentType" : 5126,
            "count" : 1643,
            "type" : "VEC2"
        },
        {
            "bufferView" : 3,
            "componentType" : 5123,
            "count" : 2043,
            "type" : "SCALAR"
        }
    ],
    "bufferViews" : [
        {
            "buffer" : 0,
            "byteLength" : 19716,
            "byteOffset" : 0
        },
        {
            "buffer" : 0,
            "byteLength" : 19716,
            "byteOffset" : 19716
        },
        {
            "buffer" : 0,
            "byteLength" : 13144,
            "byteOffset" : 39432
        },
        {
            "buffer" : 0,
            "byteLength" : 4086,
            "byteOffset" : 52576
        },
        {
            "buffer" : 0,
            "byteLength" : 571220,
            "byteOffset" : 56664
        }
    ],
    "buffers" : [
        {
            "byteLength" : 627884,
            "uri" : "data:application/octet-stream;base64,"
        }
    ]
}
