{
    "asset" : {
        "generator" : "Khronos glTF Blender I/O v1.1.45",
        "version" : "2.0"
    },
    "scene" : 0,
    "scenes" : [
        {
            "name" : "Scene",
            "nodes" : [
                0
            ]
        }
    ],
    "nodes" : [
        {
            "mesh" : 0,
            "name" : "_4_tree_Icosphere.043",
            "rotation" : [
                0.7071068286895752,
                0,
                0,
                0.7071067094802856
            ]
        }
    ],
    "materials" : [
        {
            "doubleSided" : true,
            "emissiveFactor" : [
                0,
                0,
                0
            ],
            "name" : "_4_tree",
            "pbrMetallicRoughness" : {
                "baseColorTexture" : {
                    "index" : 0,
                    "texCoord" : 0
                },
                "metallicFactor" : 0,
                "roughnessFactor" : 0.6732679605484009
            }
        }
    ],
    "meshes" : [
        {
            "name" : "_4_tree_Icosphere.043",
            "primitives" : [
                {
                    "attributes" : {
                        "POSITION" : 0,
                        "NORMAL" : 1,
                        "TEXCOORD_0" : 2
                    },
                    "indices" : 3,
                    "material" : 0
                }
            ]
        }
    ],
    "textures" : [
        {
            "source" : 0
        }
    ],
    "images" : [
        {
            "bufferView" : 4,
            "mimeType" : "image/png",
            "name" : "_4_tree"
        }
    ],
    "accessors" : [
        {
            "bufferView" : 0,
            "componentType" : 5126,
            "count" : 2036,
            "max" : [
                0.31149598956108093,
                0.49012601375579834,
                0.011651000007987022
            ],
            "min" : [
                -0.7934139966964722,
                -0.430757999420166,
                -1.7855050563812256
            ],
            "type" : "VEC3"
        },
        {
            "bufferView" : 1,
            "componentType" : 5126,
            "count" : 2036,
            "type" : "VEC3"
        },
        {
            "bufferView" : 2,
            "componentType" : 5126,
            "count" : 2036,
            "type" : "VEC2"
        },
        {
            "bufferView" : 3,
            "componentType" : 5123,
            "count" : 2226,
            "type" : "SCALAR"
        }
    ],
    "bufferViews" : [
        {
            "buffer" : 0,
            "byteLength" : 24432,
            "byteOffset" : 0
        },
        {
            "buffer" : 0,
            "byteLength" : 24432,
            "byteOffset" : 24432
        },
        {
            "buffer" : 0,
            "byteLength" : 16288,
            "byteOffset" : 48864
        },
        {
            "buffer" : 0,
            "byteLength" : 4452,
            "byteOffset" : 65152
        },
        {
            "buffer" : 0,
            "byteLength" : 213672,
            "byteOffset" : 69604
        }
    ],
    "buffers" : [
        {
            "byteLength" : 283276,
            "uri" : "data:application/octet-stream;base64,"
        }
    ]
}
