{
    "asset" : {
        "generator" : "Khronos glTF Blender I/O v1.0.5",
        "version" : "2.0"
    },
    "scene" : 0,
    "scenes" : [
        {
            "name" : "Scene",
            "nodes" : [
                0
            ]
        }
    ],
    "nodes" : [
        {
            "mesh" : 0,
            "name" : "WestlakeHall_0",
            "rotation" : [
                0.9999142289161682,
                -0.0005484522553160787,
                -0.013090068474411964,
                1.5190040357992984e-05
            ]
        }
    ],
    "materials" : [
        {
            "doubleSided" : true,
            "name" : "CityEngineMaterial.001",
            "pbrMetallicRoughness" : {
                "baseColorTexture" : {
                    "index" : 0,
                    "texCoord" : 0
                },
                "metallicFactor" : 0,
                "roughnessFactor" : 0.5
            }
        }
    ],
    "meshes" : [
        {
            "name" : "WestlakeHall_0",
            "primitives" : [
                {
                    "attributes" : {
                        "POSITION" : 0,
                        "NORMAL" : 1,
                        "TEXCOORD_0" : 2,
                        "TEXCOORD_1" : 3
                    },
                    "indices" : 4,
                    "material" : 0
                }
            ]
        }
    ],
    "textures" : [
        {
            "source" : 0
        }
    ],
    "images" : [
        {
            "bufferView" : 5,
            "mimeType" : "image/png",
            "name" : "CityEngineMaterial"
        }
    ],
    "accessors" : [
        {
            "bufferView" : 0,
            "componentType" : 5126,
            "count" : 26812,
            "max" : [
                18.3125,
                3.818972587585449,
                34
            ],
            "min" : [
                -20.875,
                -11.193986892700195,
                -36
            ],
            "type" : "VEC3"
        },
        {
            "bufferView" : 1,
            "componentType" : 5126,
            "count" : 26812,
            "type" : "VEC3"
        },
        {
            "bufferView" : 2,
            "componentType" : 5126,
            "count" : 26812,
            "type" : "VEC2"
        },
        {
            "bufferView" : 3,
            "componentType" : 5126,
            "count" : 26812,
            "type" : "VEC2"
        },
        {
            "bufferView" : 4,
            "componentType" : 5123,
            "count" : 42030,
            "type" : "SCALAR"
        }
    ],
    "bufferViews" : [
        {
            "buffer" : 0,
            "byteLength" : 321744,
            "byteOffset" : 0
        },
        {
            "buffer" : 0,
            "byteLength" : 321744,
            "byteOffset" : 321744
        },
        {
            "buffer" : 0,
            "byteLength" : 214496,
            "byteOffset" : 643488
        },
        {
            "buffer" : 0,
            "byteLength" : 214496,
            "byteOffset" : 857984
        },
        {
            "buffer" : 0,
            "byteLength" : 84060,
            "byteOffset" : 1072480
        },
        {
            "buffer" : 0,
            "byteLength" : 78142,
            "byteOffset" : 1156540
        }
    ],
    "buffers" : [
        {
            "byteLength" : 1234684,
            "uri" : "data:application/octet-stream;base64,"
        }
    ]
}
